<?xml version="1.0" encoding="utf-8" standalone="no"?>
<!DOCTYPE svg PUBLIC "-//W3C//DTD SVG 1.1//EN"
  "http://www.w3.org/Graphics/SVG/1.1/DTD/svg11.dtd">
<!-- Created with matplotlib (http://matplotlib.org/) -->
<svg height="252pt" version="1.1" viewBox="0 0 375 252" width="375pt" xmlns="http://www.w3.org/2000/svg" xmlns:xlink="http://www.w3.org/1999/xlink">
 <defs>
  <style type="text/css">
*{stroke-linecap:butt;stroke-linejoin:round;}
  </style>
 </defs>
 <g id="figure_1">
  <g id="patch_1">
   <path d="M 0 252.018125 
L 375.603125 252.018125 
L 375.603125 0 
L 0 0 
z
" style="fill:none;"/>
  </g>
  <g id="axes_1">
   <g id="patch_2">
    <path d="M 30.103125 228.14 
L 364.903125 228.14 
L 364.903125 10.7 
L 30.103125 10.7 
z
" style="fill:#ffffff;"/>
   </g>
   <g id="matplotlib.axis_1">
    <g id="xtick_1">
     <g id="line2d_1">
      <path clip-path="url(#p354ea4861b)" d="M 75.788137 228.14 
L 75.788137 10.7 
" style="fill:none;stroke:#b0b0b0;stroke-linecap:square;stroke-width:0.8;"/>
     </g>
     <g id="line2d_2">
      <defs>
       <path d="M 0 0 
L 0 3.5 
" id="mafbeb143df" style="stroke:#000000;stroke-width:0.8;"/>
      </defs>
      <g>
       <use style="stroke:#000000;stroke-width:0.8;" x="75.788137" xlink:href="#mafbeb143df" y="228.14"/>
      </g>
     </g>
     <g id="text_1">
      <!-- −4 -->
      <defs>
       <path d="M 10.59375 35.5 
L 73.1875 35.5 
L 73.1875 27.203125 
L 10.59375 27.203125 
z
" id="DejaVuSans-2212"/>
       <path d="M 37.796875 64.3125 
L 12.890625 25.390625 
L 37.796875 25.390625 
z
M 35.203125 72.90625 
L 47.609375 72.90625 
L 47.609375 25.390625 
L 58.015625 25.390625 
L 58.015625 17.1875 
L 47.609375 17.1875 
L 47.609375 0 
L 37.796875 0 
L 37.796875 17.1875 
L 4.890625 17.1875 
L 4.890625 26.703125 
z
" id="DejaVuSans-34"/>
      </defs>
      <g transform="translate(68.417044 242.738437)scale(0.1 -0.1)">
       <use xlink:href="#DejaVuSans-2212"/>
       <use x="83.789062" xlink:href="#DejaVuSans-34"/>
      </g>
     </g>
    </g>
    <g id="xtick_2">
     <g id="line2d_3">
      <path clip-path="url(#p354ea4861b)" d="M 136.721798 228.14 
L 136.721798 10.7 
" style="fill:none;stroke:#b0b0b0;stroke-linecap:square;stroke-width:0.8;"/>
     </g>
     <g id="line2d_4">
      <g>
       <use style="stroke:#000000;stroke-width:0.8;" x="136.721798" xlink:href="#mafbeb143df" y="228.14"/>
      </g>
     </g>
     <g id="text_2">
      <!-- −2 -->
      <defs>
       <path d="M 19.1875 8.296875 
L 53.609375 8.296875 
L 53.609375 0 
L 7.328125 0 
L 7.328125 8.296875 
Q 12.9375 14.109375 22.625 23.890625 
Q 32.328125 33.6875 34.8125 36.53125 
Q 39.546875 41.84375 41.421875 45.53125 
Q 43.3125 49.21875 43.3125 52.78125 
Q 43.3125 58.59375 39.234375 62.25 
Q 35.15625 65.921875 28.609375 65.921875 
Q 23.96875 65.921875 18.8125 64.3125 
Q 13.671875 62.703125 7.8125 59.421875 
L 7.8125 69.390625 
Q 13.765625 71.78125 18.9375 73 
Q 24.125 74.21875 28.421875 74.21875 
Q 39.75 74.21875 46.484375 68.546875 
Q 53.21875 62.890625 53.21875 53.421875 
Q 53.21875 48.921875 51.53125 44.890625 
Q 49.859375 40.875 45.40625 35.40625 
Q 44.1875 33.984375 37.640625 27.21875 
Q 31.109375 20.453125 19.1875 8.296875 
z
" id="DejaVuSans-32"/>
      </defs>
      <g transform="translate(129.350704 242.738437)scale(0.1 -0.1)">
       <use xlink:href="#DejaVuSans-2212"/>
       <use x="83.789062" xlink:href="#DejaVuSans-32"/>
      </g>
     </g>
    </g>
    <g id="xtick_3">
     <g id="line2d_5">
      <path clip-path="url(#p354ea4861b)" d="M 197.655459 228.14 
L 197.655459 10.7 
" style="fill:none;stroke:#b0b0b0;stroke-linecap:square;stroke-width:0.8;"/>
     </g>
     <g id="line2d_6">
      <g>
       <use style="stroke:#000000;stroke-width:0.8;" x="197.655459" xlink:href="#mafbeb143df" y="228.14"/>
      </g>
     </g>
     <g id="text_3">
      <!-- 0 -->
      <defs>
       <path d="M 31.78125 66.40625 
Q 24.171875 66.40625 20.328125 58.90625 
Q 16.5 51.421875 16.5 36.375 
Q 16.5 21.390625 20.328125 13.890625 
Q 24.171875 6.390625 31.78125 6.390625 
Q 39.453125 6.390625 43.28125 13.890625 
Q 47.125 21.390625 47.125 36.375 
Q 47.125 51.421875 43.28125 58.90625 
Q 39.453125 66.40625 31.78125 66.40625 
z
M 31.78125 74.21875 
Q 44.046875 74.21875 50.515625 64.515625 
Q 56.984375 54.828125 56.984375 36.375 
Q 56.984375 17.96875 50.515625 8.265625 
Q 44.046875 -1.421875 31.78125 -1.421875 
Q 19.53125 -1.421875 13.0625 8.265625 
Q 6.59375 17.96875 6.59375 36.375 
Q 6.59375 54.828125 13.0625 64.515625 
Q 19.53125 74.21875 31.78125 74.21875 
z
" id="DejaVuSans-30"/>
      </defs>
      <g transform="translate(194.474209 242.738437)scale(0.1 -0.1)">
       <use xlink:href="#DejaVuSans-30"/>
      </g>
     </g>
    </g>
    <g id="xtick_4">
     <g id="line2d_7">
      <path clip-path="url(#p354ea4861b)" d="M 258.58912 228.14 
L 258.58912 10.7 
" style="fill:none;stroke:#b0b0b0;stroke-linecap:square;stroke-width:0.8;"/>
     </g>
     <g id="line2d_8">
      <g>
       <use style="stroke:#000000;stroke-width:0.8;" x="258.58912" xlink:href="#mafbeb143df" y="228.14"/>
      </g>
     </g>
     <g id="text_4">
      <!-- 2 -->
      <g transform="translate(255.40787 242.738437)scale(0.1 -0.1)">
       <use xlink:href="#DejaVuSans-32"/>
      </g>
     </g>
    </g>
    <g id="xtick_5">
     <g id="line2d_9">
      <path clip-path="url(#p354ea4861b)" d="M 319.522781 228.14 
L 319.522781 10.7 
" style="fill:none;stroke:#b0b0b0;stroke-linecap:square;stroke-width:0.8;"/>
     </g>
     <g id="line2d_10">
      <g>
       <use style="stroke:#000000;stroke-width:0.8;" x="319.522781" xlink:href="#mafbeb143df" y="228.14"/>
      </g>
     </g>
     <g id="text_5">
      <!-- 4 -->
      <g transform="translate(316.341531 242.738437)scale(0.1 -0.1)">
       <use xlink:href="#DejaVuSans-34"/>
      </g>
     </g>
    </g>
   </g>
   <g id="matplotlib.axis_2">
    <g id="ytick_1">
     <g id="line2d_11">
      <path clip-path="url(#p354ea4861b)" d="M 30.103125 218.256665 
L 364.903125 218.256665 
" style="fill:none;stroke:#b0b0b0;stroke-linecap:square;stroke-width:0.8;"/>
     </g>
     <g id="line2d_12">
      <defs>
       <path d="M 0 0 
L -3.5 0 
" id="m7e5981c400" style="stroke:#000000;stroke-width:0.8;"/>
      </defs>
      <g>
       <use style="stroke:#000000;stroke-width:0.8;" x="30.103125" xlink:href="#m7e5981c400" y="218.256665"/>
      </g>
     </g>
     <g id="text_6">
      <!-- 0.0 -->
      <defs>
       <path d="M 10.6875 12.40625 
L 21 12.40625 
L 21 0 
L 10.6875 0 
z
" id="DejaVuSans-2e"/>
      </defs>
      <g transform="translate(7.2 222.055884)scale(0.1 -0.1)">
       <use xlink:href="#DejaVuSans-30"/>
       <use x="63.623047" xlink:href="#DejaVuSans-2e"/>
       <use x="95.410156" xlink:href="#DejaVuSans-30"/>
      </g>
     </g>
    </g>
    <g id="ytick_2">
     <g id="line2d_13">
      <path clip-path="url(#p354ea4861b)" d="M 30.103125 182.895839 
L 364.903125 182.895839 
" style="fill:none;stroke:#b0b0b0;stroke-linecap:square;stroke-width:0.8;"/>
     </g>
     <g id="line2d_14">
      <g>
       <use style="stroke:#000000;stroke-width:0.8;" x="30.103125" xlink:href="#m7e5981c400" y="182.895839"/>
      </g>
     </g>
     <g id="text_7">
      <!-- 0.2 -->
      <g transform="translate(7.2 186.695057)scale(0.1 -0.1)">
       <use xlink:href="#DejaVuSans-30"/>
       <use x="63.623047" xlink:href="#DejaVuSans-2e"/>
       <use x="95.410156" xlink:href="#DejaVuSans-32"/>
      </g>
     </g>
    </g>
    <g id="ytick_3">
     <g id="line2d_15">
      <path clip-path="url(#p354ea4861b)" d="M 30.103125 147.535012 
L 364.903125 147.535012 
" style="fill:none;stroke:#b0b0b0;stroke-linecap:square;stroke-width:0.8;"/>
     </g>
     <g id="line2d_16">
      <g>
       <use style="stroke:#000000;stroke-width:0.8;" x="30.103125" xlink:href="#m7e5981c400" y="147.535012"/>
      </g>
     </g>
     <g id="text_8">
      <!-- 0.4 -->
      <g transform="translate(7.2 151.334231)scale(0.1 -0.1)">
       <use xlink:href="#DejaVuSans-30"/>
       <use x="63.623047" xlink:href="#DejaVuSans-2e"/>
       <use x="95.410156" xlink:href="#DejaVuSans-34"/>
      </g>
     </g>
    </g>
    <g id="ytick_4">
     <g id="line2d_17">
      <path clip-path="url(#p354ea4861b)" d="M 30.103125 112.174186 
L 364.903125 112.174186 
" style="fill:none;stroke:#b0b0b0;stroke-linecap:square;stroke-width:0.8;"/>
     </g>
     <g id="line2d_18">
      <g>
       <use style="stroke:#000000;stroke-width:0.8;" x="30.103125" xlink:href="#m7e5981c400" y="112.174186"/>
      </g>
     </g>
     <g id="text_9">
      <!-- 0.6 -->
      <defs>
       <path d="M 33.015625 40.375 
Q 26.375 40.375 22.484375 35.828125 
Q 18.609375 31.296875 18.609375 23.390625 
Q 18.609375 15.53125 22.484375 10.953125 
Q 26.375 6.390625 33.015625 6.390625 
Q 39.65625 6.390625 43.53125 10.953125 
Q 47.40625 15.53125 47.40625 23.390625 
Q 47.40625 31.296875 43.53125 35.828125 
Q 39.65625 40.375 33.015625 40.375 
z
M 52.59375 71.296875 
L 52.59375 62.3125 
Q 48.875 64.0625 45.09375 64.984375 
Q 41.3125 65.921875 37.59375 65.921875 
Q 27.828125 65.921875 22.671875 59.328125 
Q 17.53125 52.734375 16.796875 39.40625 
Q 19.671875 43.65625 24.015625 45.921875 
Q 28.375 48.1875 33.59375 48.1875 
Q 44.578125 48.1875 50.953125 41.515625 
Q 57.328125 34.859375 57.328125 23.390625 
Q 57.328125 12.15625 50.6875 5.359375 
Q 44.046875 -1.421875 33.015625 -1.421875 
Q 20.359375 -1.421875 13.671875 8.265625 
Q 6.984375 17.96875 6.984375 36.375 
Q 6.984375 53.65625 15.1875 63.9375 
Q 23.390625 74.21875 37.203125 74.21875 
Q 40.921875 74.21875 44.703125 73.484375 
Q 48.484375 72.75 52.59375 71.296875 
z
" id="DejaVuSans-36"/>
      </defs>
      <g transform="translate(7.2 115.973405)scale(0.1 -0.1)">
       <use xlink:href="#DejaVuSans-30"/>
       <use x="63.623047" xlink:href="#DejaVuSans-2e"/>
       <use x="95.410156" xlink:href="#DejaVuSans-36"/>
      </g>
     </g>
    </g>
    <g id="ytick_5">
     <g id="line2d_19">
      <path clip-path="url(#p354ea4861b)" d="M 30.103125 76.81336 
L 364.903125 76.81336 
" style="fill:none;stroke:#b0b0b0;stroke-linecap:square;stroke-width:0.8;"/>
     </g>
     <g id="line2d_20">
      <g>
       <use style="stroke:#000000;stroke-width:0.8;" x="30.103125" xlink:href="#m7e5981c400" y="76.81336"/>
      </g>
     </g>
     <g id="text_10">
      <!-- 0.8 -->
      <defs>
       <path d="M 31.78125 34.625 
Q 24.75 34.625 20.71875 30.859375 
Q 16.703125 27.09375 16.703125 20.515625 
Q 16.703125 13.921875 20.71875 10.15625 
Q 24.75 6.390625 31.78125 6.390625 
Q 38.8125 6.390625 42.859375 10.171875 
Q 46.921875 13.96875 46.921875 20.515625 
Q 46.921875 27.09375 42.890625 30.859375 
Q 38.875 34.625 31.78125 34.625 
z
M 21.921875 38.8125 
Q 15.578125 40.375 12.03125 44.71875 
Q 8.5 49.078125 8.5 55.328125 
Q 8.5 64.0625 14.71875 69.140625 
Q 20.953125 74.21875 31.78125 74.21875 
Q 42.671875 74.21875 48.875 69.140625 
Q 55.078125 64.0625 55.078125 55.328125 
Q 55.078125 49.078125 51.53125 44.71875 
Q 48 40.375 41.703125 38.8125 
Q 48.828125 37.15625 52.796875 32.3125 
Q 56.78125 27.484375 56.78125 20.515625 
Q 56.78125 9.90625 50.3125 4.234375 
Q 43.84375 -1.421875 31.78125 -1.421875 
Q 19.734375 -1.421875 13.25 4.234375 
Q 6.78125 9.90625 6.78125 20.515625 
Q 6.78125 27.484375 10.78125 32.3125 
Q 14.796875 37.15625 21.921875 38.8125 
z
M 18.3125 54.390625 
Q 18.3125 48.734375 21.84375 45.5625 
Q 25.390625 42.390625 31.78125 42.390625 
Q 38.140625 42.390625 41.71875 45.5625 
Q 45.3125 48.734375 45.3125 54.390625 
Q 45.3125 60.0625 41.71875 63.234375 
Q 38.140625 66.40625 31.78125 66.40625 
Q 25.390625 66.40625 21.84375 63.234375 
Q 18.3125 60.0625 18.3125 54.390625 
z
" id="DejaVuSans-38"/>
      </defs>
      <g transform="translate(7.2 80.612578)scale(0.1 -0.1)">
       <use xlink:href="#DejaVuSans-30"/>
       <use x="63.623047" xlink:href="#DejaVuSans-2e"/>
       <use x="95.410156" xlink:href="#DejaVuSans-38"/>
      </g>
     </g>
    </g>
    <g id="ytick_6">
     <g id="line2d_21">
      <path clip-path="url(#p354ea4861b)" d="M 30.103125 41.452533 
L 364.903125 41.452533 
" style="fill:none;stroke:#b0b0b0;stroke-linecap:square;stroke-width:0.8;"/>
     </g>
     <g id="line2d_22">
      <g>
       <use style="stroke:#000000;stroke-width:0.8;" x="30.103125" xlink:href="#m7e5981c400" y="41.452533"/>
      </g>
     </g>
     <g id="text_11">
      <!-- 1.0 -->
      <defs>
       <path d="M 12.40625 8.296875 
L 28.515625 8.296875 
L 28.515625 63.921875 
L 10.984375 60.40625 
L 10.984375 69.390625 
L 28.421875 72.90625 
L 38.28125 72.90625 
L 38.28125 8.296875 
L 54.390625 8.296875 
L 54.390625 0 
L 12.40625 0 
z
" id="DejaVuSans-31"/>
      </defs>
      <g transform="translate(7.2 45.251752)scale(0.1 -0.1)">
       <use xlink:href="#DejaVuSans-31"/>
       <use x="63.623047" xlink:href="#DejaVuSans-2e"/>
       <use x="95.410156" xlink:href="#DejaVuSans-30"/>
      </g>
     </g>
    </g>
   </g>
   <g id="line2d_23">
    <path clip-path="url(#p354ea4861b)" d="M 45.321307 217.661016 
L 62.078064 217.224255 
L 75.178801 216.669586 
L 85.842191 216.004492 
L 94.98224 215.21655 
L 102.903616 214.313848 
L 109.910987 213.294236 
L 116.309022 212.134625 
L 122.09772 210.853591 
L 127.277081 209.481765 
L 132.151774 207.959225 
L 136.721798 206.292746 
L 140.987154 204.494883 
L 144.947842 202.584357 
L 148.603862 200.586187 
L 152.259882 198.333257 
L 155.611233 196.016601 
L 158.962584 193.430569 
L 162.313936 190.543839 
L 165.360619 187.629256 
L 168.407302 184.408143 
L 171.453985 180.848263 
L 174.500668 176.913987 
L 177.242683 173.02057 
L 179.984697 168.760493 
L 182.726712 164.099226 
L 185.468727 158.998988 
L 188.210742 153.418439 
L 190.952756 147.312345 
L 193.694771 140.631215 
L 196.436786 133.320894 
L 197.655459 129.854599 
L 200.397474 137.46326 
L 203.139489 144.417053 
L 205.881503 150.772341 
L 208.623518 156.580636 
L 211.365533 161.889019 
L 214.107548 166.740516 
L 216.849562 171.174449 
L 219.591577 175.22676 
L 222.63826 179.321597 
L 225.684943 183.026758 
L 228.731626 186.379327 
L 231.778309 189.412857 
L 235.129661 192.417397 
L 238.481012 195.108967 
L 241.832363 197.520167 
L 245.488383 199.865041 
L 249.144403 201.944758 
L 253.105091 203.933254 
L 257.065779 205.679343 
L 261.331135 207.322467 
L 265.901159 208.845513 
L 270.775852 210.23701 
L 275.955213 211.490765 
L 281.743911 212.661542 
L 288.141946 213.721346 
L 295.149317 214.653202 
L 303.070693 215.478209 
L 312.210742 216.198334 
L 322.874132 216.806184 
L 335.670201 217.303631 
L 349.684943 217.65503 
L 349.684943 217.65503 
" style="fill:none;stroke:#1f77b4;stroke-linecap:square;stroke-width:1.5;"/>
   </g>
   <g id="line2d_24">
    <path clip-path="url(#p354ea4861b)" d="M 45.321307 218.150483 
L 70.304108 217.918068 
L 85.537523 217.569951 
L 96.81025 217.097822 
L 105.645631 216.510287 
L 112.95767 215.804539 
L 119.051037 215.002948 
L 124.535066 214.059722 
L 129.409759 212.994037 
L 133.675115 211.841784 
L 137.635803 210.54705 
L 141.291823 209.121111 
L 144.643174 207.58345 
L 147.689857 205.962083 
L 150.73654 204.094414 
L 153.478555 202.172114 
L 156.22057 199.988892 
L 158.962584 197.509332 
L 161.399931 195.024104 
L 163.837277 192.241182 
L 166.274624 189.124906 
L 168.71197 185.635346 
L 171.149317 181.727787 
L 173.586663 177.352159 
L 176.02401 172.452396 
L 178.156688 167.68597 
L 180.289366 162.423547 
L 182.422044 156.613513 
L 184.554722 150.198882 
L 186.6874 143.11674 
L 188.820078 135.297625 
L 190.952756 126.664847 
L 193.085435 117.133736 
L 195.218113 106.610811 
L 197.350791 94.992863 
L 197.655459 93.237264 
L 199.788137 105.020683 
L 201.920815 115.693482 
L 204.053494 125.36034 
L 206.186172 134.116071 
L 208.31885 142.046551 
L 210.451528 149.229561 
L 212.584206 155.735553 
L 215.021553 162.423547 
L 217.458899 168.396115 
L 219.896245 173.729786 
L 222.333592 178.492905 
L 224.770938 182.746505 
L 227.208285 186.545089 
L 229.645631 189.937333 
L 232.082978 192.966702 
L 234.520324 195.672014 
L 237.262339 198.371155 
L 240.004354 200.747717 
L 242.746368 202.84025 
L 245.793051 204.873314 
L 248.839734 206.638264 
L 252.191086 208.312095 
L 255.542437 209.744782 
L 259.198457 211.073375 
L 263.159145 212.279719 
L 267.424501 213.353309 
L 272.299194 214.346241 
L 277.783223 215.225075 
L 283.876589 215.971942 
L 290.88396 216.606335 
L 299.414673 217.145959 
L 309.773395 217.569951 
L 323.483469 217.893258 
L 342.98224 218.109666 
L 349.684943 218.14897 
L 349.684943 218.14897 
" style="fill:none;stroke:#ff7f0e;stroke-linecap:square;stroke-width:1.5;"/>
   </g>
   <g id="line2d_25">
    <path clip-path="url(#p354ea4861b)" d="M 45.321307 218.230872 
L 72.436786 218.067957 
L 84.928186 217.784662 
L 93.154231 217.393398 
L 99.552265 216.87603 
L 104.731626 216.237518 
L 108.996982 215.495302 
L 112.653002 214.64542 
L 116.004354 213.638395 
L 119.051037 212.481153 
L 121.793051 211.193643 
L 124.230398 209.810112 
L 126.667744 208.155569 
L 128.800422 206.444043 
L 130.9331 204.442515 
L 133.065779 202.10185 
L 134.893788 199.782334 
L 136.721798 197.129782 
L 138.549808 194.096374 
L 140.377818 190.627429 
L 142.205828 186.660411 
L 144.033838 182.123807 
L 145.861847 176.935836 
L 147.689857 171.002973 
L 149.517867 164.218267 
L 151.345877 156.45941 
L 153.173887 147.586533 
L 155.001896 137.439684 
L 156.829906 125.835946 
L 158.657916 112.566139 
L 160.485926 97.391046 
L 162.313936 80.037107 
L 164.141946 60.191482 
L 165.969955 37.496413 
L 167.188629 20.583636 
L 169.016639 45.402162 
L 170.844648 67.104637 
L 172.672658 86.082292 
L 174.500668 102.677237 
L 176.328678 117.18863 
L 178.156688 129.878068 
L 179.984697 140.974304 
L 181.812707 150.677369 
L 183.640717 159.162181 
L 185.468727 166.581696 
L 187.296737 173.069665 
L 189.124747 178.743048 
L 190.952756 183.704118 
L 192.780766 188.042308 
L 194.608776 191.835824 
L 196.436786 195.153051 
L 198.264796 198.053789 
L 200.092806 200.590329 
L 202.225484 203.149999 
L 204.358162 205.338798 
L 206.49084 207.210464 
L 208.623518 208.810944 
L 211.060865 210.358137 
L 213.498211 211.651902 
L 216.240226 212.855877 
L 219.286909 213.938036 
L 222.63826 214.879723 
L 226.29428 215.674463 
L 230.559636 216.368524 
L 235.434329 216.936414 
L 241.527695 217.412487 
L 249.144403 217.773988 
L 259.503125 218.030993 
L 275.650545 218.187675 
L 310.382732 218.251273 
L 349.684943 218.256364 
L 349.684943 218.256364 
" style="fill:none;stroke:#2ca02c;stroke-linecap:square;stroke-width:1.5;"/>
   </g>
   <g id="line2d_26">
    <path clip-path="url(#p354ea4861b)" d="M 45.321307 216.921909 
L 68.476098 216.304872 
L 87.974869 215.568797 
L 104.731626 214.718005 
L 119.355705 213.758146 
L 132.456442 212.679123 
L 144.338506 211.478217 
L 155.001896 210.181864 
L 164.751282 208.780799 
L 173.891331 207.247279 
L 182.422044 205.592857 
L 190.34342 203.834761 
L 197.960127 201.914507 
L 204.967498 199.922832 
L 211.670201 197.791009 
L 218.068236 195.525244 
L 224.161602 193.134559 
L 229.950299 190.630919 
L 235.434329 188.029284 
L 240.918358 185.182642 
L 246.09772 182.248412 
L 251.277081 179.053866 
L 256.151774 175.788779 
L 258.58912 174.055632 
L 263.463813 177.453969 
L 268.338506 180.591029 
L 273.517867 183.660316 
L 278.697228 186.479493 
L 284.181258 189.214517 
L 289.969955 191.846521 
L 295.758653 194.239995 
L 301.852019 196.525484 
L 308.250054 198.691549 
L 314.952756 200.729567 
L 321.960127 202.633603 
L 329.576835 204.469361 
L 337.498211 206.150096 
L 346.028924 207.73172 
L 349.684943 208.344645 
L 349.684943 208.344645 
" style="fill:none;stroke:#d62728;stroke-linecap:square;stroke-width:1.5;"/>
   </g>
   <g id="patch_3">
    <path d="M 30.103125 228.14 
L 30.103125 10.7 
" style="fill:none;stroke:#000000;stroke-linecap:square;stroke-linejoin:miter;stroke-width:0.8;"/>
   </g>
   <g id="patch_4">
    <path d="M 364.903125 228.14 
L 364.903125 10.7 
" style="fill:none;stroke:#000000;stroke-linecap:square;stroke-linejoin:miter;stroke-width:0.8;"/>
   </g>
   <g id="patch_5">
    <path d="M 30.103125 228.14 
L 364.903125 228.14 
" style="fill:none;stroke:#000000;stroke-linecap:square;stroke-linejoin:miter;stroke-width:0.8;"/>
   </g>
   <g id="patch_6">
    <path d="M 30.103125 10.7 
L 364.903125 10.7 
" style="fill:none;stroke:#000000;stroke-linecap:square;stroke-linejoin:miter;stroke-width:0.8;"/>
   </g>
   <g id="legend_1">
    <g id="patch_7">
     <path d="M 251.403125 77.5 
L 357.903125 77.5 
Q 359.903125 77.5 359.903125 75.5 
L 359.903125 17.7 
Q 359.903125 15.7 357.903125 15.7 
L 251.403125 15.7 
Q 249.403125 15.7 249.403125 17.7 
L 249.403125 75.5 
Q 249.403125 77.5 251.403125 77.5 
z
" style="fill:#ffffff;opacity:0.8;stroke:#cccccc;stroke-linejoin:miter;"/>
    </g>
    <g id="line2d_27">
     <path d="M 253.403125 23.8 
L 273.403125 23.8 
" style="fill:none;stroke:#1f77b4;stroke-linecap:square;stroke-width:1.5;"/>
    </g>
    <g id="line2d_28"/>
    <g id="text_12">
     <!-- $\mu$ = 0, $b$ = 1 -->
     <defs>
      <path d="M -1.3125 -20.796875 
L 13.375 54.6875 
L 22.40625 54.6875 
L 15.765625 20.65625 
Q 15.578125 19.625 15.421875 18.359375 
Q 15.28125 17.09375 15.28125 15.828125 
Q 15.28125 11.28125 18.140625 8.828125 
Q 21 6.390625 26.3125 6.390625 
Q 33.546875 6.390625 37.984375 10.484375 
Q 42.4375 14.59375 44 22.796875 
L 50.203125 54.6875 
L 59.1875 54.6875 
L 51.03125 12.640625 
Q 50.828125 11.71875 50.75 11.03125 
Q 50.6875 10.359375 50.6875 9.8125 
Q 50.6875 8.296875 51.296875 7.59375 
Q 51.90625 6.890625 53.21875 6.890625 
Q 53.71875 6.890625 54.5625 7.125 
Q 55.421875 7.375 56.984375 8.015625 
L 55.609375 0.78125 
Q 53.46875 -0.296875 51.515625 -0.859375 
Q 49.5625 -1.421875 47.703125 -1.421875 
Q 44.484375 -1.421875 42.65625 0.625 
Q 40.828125 2.6875 40.828125 6.296875 
Q 38.09375 2.390625 34.296875 0.484375 
Q 30.515625 -1.421875 25.390625 -1.421875 
Q 20.84375 -1.421875 17.453125 0.671875 
Q 14.0625 2.78125 12.984375 6.203125 
L 7.71875 -20.796875 
z
" id="DejaVuSans-Oblique-3bc"/>
      <path id="DejaVuSans-20"/>
      <path d="M 10.59375 45.40625 
L 73.1875 45.40625 
L 73.1875 37.203125 
L 10.59375 37.203125 
z
M 10.59375 25.484375 
L 73.1875 25.484375 
L 73.1875 17.1875 
L 10.59375 17.1875 
z
" id="DejaVuSans-3d"/>
      <path d="M 11.71875 12.40625 
L 22.015625 12.40625 
L 22.015625 4 
L 14.015625 -11.625 
L 7.71875 -11.625 
L 11.71875 4 
z
" id="DejaVuSans-2c"/>
      <path d="M 49.515625 33.40625 
Q 49.515625 40.484375 46.265625 44.484375 
Q 43.015625 48.484375 37.3125 48.484375 
Q 33.15625 48.484375 29.515625 46.453125 
Q 25.875 44.4375 23.1875 40.578125 
Q 20.359375 36.53125 18.71875 31.171875 
Q 17.09375 25.828125 17.09375 20.515625 
Q 17.09375 13.765625 20.28125 9.9375 
Q 23.484375 6.109375 29.109375 6.109375 
Q 33.34375 6.109375 36.953125 8.078125 
Q 40.578125 10.0625 43.3125 13.921875 
Q 46.09375 17.921875 47.796875 23.234375 
Q 49.515625 28.5625 49.515625 33.40625 
z
M 21.578125 46.390625 
Q 24.90625 50.875 29.90625 53.4375 
Q 34.90625 56 40.375 56 
Q 48.78125 56 53.734375 50.328125 
Q 58.6875 44.671875 58.6875 35.015625 
Q 58.6875 27.09375 55.78125 19.671875 
Q 52.875 12.25 47.515625 6.5 
Q 44 2.6875 39.40625 0.625 
Q 34.8125 -1.421875 29.78125 -1.421875 
Q 24.46875 -1.421875 20.5625 1.015625 
Q 16.65625 3.46875 14.203125 8.296875 
L 12.59375 0 
L 3.609375 0 
L 18.40625 75.984375 
L 27.390625 75.984375 
z
" id="DejaVuSans-Oblique-62"/>
     </defs>
     <g transform="translate(281.403125 27.3)scale(0.1 -0.1)">
      <use transform="translate(0 0.015625)" xlink:href="#DejaVuSans-Oblique-3bc"/>
      <use transform="translate(63.623047 0.015625)" xlink:href="#DejaVuSans-20"/>
      <use transform="translate(95.410156 0.015625)" xlink:href="#DejaVuSans-3d"/>
      <use transform="translate(179.199219 0.015625)" xlink:href="#DejaVuSans-20"/>
      <use transform="translate(210.986328 0.015625)" xlink:href="#DejaVuSans-30"/>
      <use transform="translate(274.609375 0.015625)" xlink:href="#DejaVuSans-2c"/>
      <use transform="translate(306.396484 0.015625)" xlink:href="#DejaVuSans-20"/>
      <use transform="translate(338.183594 0.015625)" xlink:href="#DejaVuSans-Oblique-62"/>
      <use transform="translate(401.660156 0.015625)" xlink:href="#DejaVuSans-20"/>
      <use transform="translate(433.447266 0.015625)" xlink:href="#DejaVuSans-3d"/>
      <use transform="translate(517.236328 0.015625)" xlink:href="#DejaVuSans-20"/>
      <use transform="translate(549.023438 0.015625)" xlink:href="#DejaVuSans-31"/>
     </g>
    </g>
    <g id="line2d_29">
     <path d="M 253.403125 38.5 
L 273.403125 38.5 
" style="fill:none;stroke:#ff7f0e;stroke-linecap:square;stroke-width:1.5;"/>
    </g>
    <g id="line2d_30"/>
    <g id="text_13">
     <!-- $\mu$ = 0, $b$ = 0.5 -->
     <defs>
      <path d="M 10.796875 72.90625 
L 49.515625 72.90625 
L 49.515625 64.59375 
L 19.828125 64.59375 
L 19.828125 46.734375 
Q 21.96875 47.46875 24.109375 47.828125 
Q 26.265625 48.1875 28.421875 48.1875 
Q 40.625 48.1875 47.75 41.5 
Q 54.890625 34.8125 54.890625 23.390625 
Q 54.890625 11.625 47.5625 5.09375 
Q 40.234375 -1.421875 26.90625 -1.421875 
Q 22.3125 -1.421875 17.546875 -0.640625 
Q 12.796875 0.140625 7.71875 1.703125 
L 7.71875 11.625 
Q 12.109375 9.234375 16.796875 8.0625 
Q 21.484375 6.890625 26.703125 6.890625 
Q 35.15625 6.890625 40.078125 11.328125 
Q 45.015625 15.765625 45.015625 23.390625 
Q 45.015625 31 40.078125 35.4375 
Q 35.15625 39.890625 26.703125 39.890625 
Q 22.75 39.890625 18.8125 39.015625 
Q 14.890625 38.140625 10.796875 36.28125 
z
" id="DejaVuSans-35"/>
     </defs>
     <g transform="translate(281.403125 42)scale(0.1 -0.1)">
      <use transform="translate(0 0.015625)" xlink:href="#DejaVuSans-Oblique-3bc"/>
      <use transform="translate(63.623047 0.015625)" xlink:href="#DejaVuSans-20"/>
      <use transform="translate(95.410156 0.015625)" xlink:href="#DejaVuSans-3d"/>
      <use transform="translate(179.199219 0.015625)" xlink:href="#DejaVuSans-20"/>
      <use transform="translate(210.986328 0.015625)" xlink:href="#DejaVuSans-30"/>
      <use transform="translate(274.609375 0.015625)" xlink:href="#DejaVuSans-2c"/>
      <use transform="translate(306.396484 0.015625)" xlink:href="#DejaVuSans-20"/>
      <use transform="translate(338.183594 0.015625)" xlink:href="#DejaVuSans-Oblique-62"/>
      <use transform="translate(401.660156 0.015625)" xlink:href="#DejaVuSans-20"/>
      <use transform="translate(433.447266 0.015625)" xlink:href="#DejaVuSans-3d"/>
      <use transform="translate(517.236328 0.015625)" xlink:href="#DejaVuSans-20"/>
      <use transform="translate(549.023438 0.015625)" xlink:href="#DejaVuSans-30"/>
      <use transform="translate(612.646484 0.015625)" xlink:href="#DejaVuSans-2e"/>
      <use transform="translate(644.433594 0.015625)" xlink:href="#DejaVuSans-35"/>
     </g>
    </g>
    <g id="line2d_31">
     <path d="M 253.403125 53.2 
L 273.403125 53.2 
" style="fill:none;stroke:#2ca02c;stroke-linecap:square;stroke-width:1.5;"/>
    </g>
    <g id="line2d_32"/>
    <g id="text_14">
     <!-- $\mu$ = -1, $b$ = 0.2 -->
     <defs>
      <path d="M 4.890625 31.390625 
L 31.203125 31.390625 
L 31.203125 23.390625 
L 4.890625 23.390625 
z
" id="DejaVuSans-2d"/>
     </defs>
     <g transform="translate(281.403125 56.7)scale(0.1 -0.1)">
      <use transform="translate(0 0.015625)" xlink:href="#DejaVuSans-Oblique-3bc"/>
      <use transform="translate(63.623047 0.015625)" xlink:href="#DejaVuSans-20"/>
      <use transform="translate(95.410156 0.015625)" xlink:href="#DejaVuSans-3d"/>
      <use transform="translate(179.199219 0.015625)" xlink:href="#DejaVuSans-20"/>
      <use transform="translate(210.986328 0.015625)" xlink:href="#DejaVuSans-2d"/>
      <use transform="translate(247.070312 0.015625)" xlink:href="#DejaVuSans-31"/>
      <use transform="translate(310.693359 0.015625)" xlink:href="#DejaVuSans-2c"/>
      <use transform="translate(342.480469 0.015625)" xlink:href="#DejaVuSans-20"/>
      <use transform="translate(374.267578 0.015625)" xlink:href="#DejaVuSans-Oblique-62"/>
      <use transform="translate(437.744141 0.015625)" xlink:href="#DejaVuSans-20"/>
      <use transform="translate(469.53125 0.015625)" xlink:href="#DejaVuSans-3d"/>
      <use transform="translate(553.320312 0.015625)" xlink:href="#DejaVuSans-20"/>
      <use transform="translate(585.107422 0.015625)" xlink:href="#DejaVuSans-30"/>
      <use transform="translate(648.730469 0.015625)" xlink:href="#DejaVuSans-2e"/>
      <use transform="translate(680.439453 0.015625)" xlink:href="#DejaVuSans-32"/>
     </g>
    </g>
    <g id="line2d_33">
     <path d="M 253.403125 67.9 
L 273.403125 67.9 
" style="fill:none;stroke:#d62728;stroke-linecap:square;stroke-width:1.5;"/>
    </g>
    <g id="line2d_34"/>
    <g id="text_15">
     <!-- $\mu$ = 2, $b$ = 4 -->
     <g transform="translate(281.403125 71.4)scale(0.1 -0.1)">
      <use transform="translate(0 0.015625)" xlink:href="#DejaVuSans-Oblique-3bc"/>
      <use transform="translate(63.623047 0.015625)" xlink:href="#DejaVuSans-20"/>
      <use transform="translate(95.410156 0.015625)" xlink:href="#DejaVuSans-3d"/>
      <use transform="translate(179.199219 0.015625)" xlink:href="#DejaVuSans-20"/>
      <use transform="translate(210.986328 0.015625)" xlink:href="#DejaVuSans-32"/>
      <use transform="translate(274.609375 0.015625)" xlink:href="#DejaVuSans-2c"/>
      <use transform="translate(306.396484 0.015625)" xlink:href="#DejaVuSans-20"/>
      <use transform="translate(338.183594 0.015625)" xlink:href="#DejaVuSans-Oblique-62"/>
      <use transform="translate(401.660156 0.015625)" xlink:href="#DejaVuSans-20"/>
      <use transform="translate(433.447266 0.015625)" xlink:href="#DejaVuSans-3d"/>
      <use transform="translate(517.236328 0.015625)" xlink:href="#DejaVuSans-20"/>
      <use transform="translate(549.023438 0.015625)" xlink:href="#DejaVuSans-34"/>
     </g>
    </g>
   </g>
  </g>
 </g>
 <defs>
  <clipPath id="p354ea4861b">
   <rect height="217.44" width="334.8" x="30.103125" y="10.7"/>
  </clipPath>
 </defs>
</svg>
