<?xml version="1.0" encoding="utf-8" standalone="no"?>
<!DOCTYPE svg PUBLIC "-//W3C//DTD SVG 1.1//EN"
  "http://www.w3.org/Graphics/SVG/1.1/DTD/svg11.dtd">
<!-- Created with matplotlib (http://matplotlib.org/) -->
<svg height="238pt" version="1.1" viewBox="0 0 356 238" width="356pt" xmlns="http://www.w3.org/2000/svg" xmlns:xlink="http://www.w3.org/1999/xlink">
 <defs>
  <style type="text/css">
*{stroke-linecap:butt;stroke-linejoin:round;}
  </style>
 </defs>
 <g id="figure_1">
  <g id="patch_1">
   <path d="M 0 238.84 
L 356.2 238.84 
L 356.2 0 
L 0 0 
z
" style="fill:none;"/>
  </g>
  <g id="axes_1">
   <g id="patch_2">
    <path d="M 10.7 228.14 
L 345.5 228.14 
L 345.5 10.7 
L 10.7 10.7 
z
" style="fill:#ffffff;"/>
   </g>
   <g id="matplotlib.axis_1"/>
   <g id="matplotlib.axis_2"/>
   <g id="line2d_1">
    <path clip-path="url(#p78290a389c)" d="M 25.918182 84.297328 
L 28.35797 100.815405 
L 30.797759 116.009622 
L 33.237548 129.931131 
L 35.677336 142.630249 
L 38.117125 154.156449 
L 40.556914 164.55837 
L 42.996702 173.883809 
L 45.436491 182.179727 
L 47.87628 189.492245 
L 49.706121 194.35855 
L 51.535963 198.715975 
L 53.365804 202.583049 
L 55.195646 205.978037 
L 57.025487 208.918935 
L 58.855329 211.423478 
L 60.68517 213.509132 
L 62.515012 215.193099 
L 64.344853 216.492317 
L 66.174695 217.423457 
L 68.004536 218.002925 
L 69.834378 218.246862 
L 71.664219 218.171144 
L 73.494061 217.79138 
L 75.323902 217.122916 
L 77.153744 216.180832 
L 78.983585 214.97994 
L 80.813427 213.534791 
L 82.643268 211.859668 
L 85.083057 209.292624 
L 87.522846 206.374122 
L 89.962634 203.135819 
L 93.01237 198.685087 
L 96.062106 193.841105 
L 99.721789 187.588362 
L 103.991419 179.804473 
L 108.870997 170.435708 
L 116.190363 155.849804 
L 127.169412 133.954146 
L 132.658936 123.483809 
L 137.538513 114.657176 
L 141.808144 107.403085 
L 145.467827 101.591083 
L 149.12751 96.196415 
L 152.177245 92.045816 
L 155.226981 88.228796 
L 158.276717 84.761938 
L 161.326453 81.659778 
L 164.376189 78.934805 
L 166.815977 77.033486 
L 169.255766 75.384691 
L 171.695555 73.991983 
L 174.135343 72.858088 
L 176.575132 71.984892 
L 179.014921 71.373445 
L 181.454709 71.023955 
L 183.894498 70.935794 
L 186.334287 71.107493 
L 188.774075 71.536748 
L 191.213864 72.220413 
L 193.653653 73.154505 
L 196.093441 74.334203 
L 198.53323 75.753845 
L 200.973019 77.406934 
L 203.412807 79.286131 
L 206.462543 81.940558 
L 209.512279 84.91763 
L 212.562015 88.197491 
L 216.221698 92.502016 
L 219.881381 97.169158 
L 224.151011 103.010872 
L 229.030588 110.111201 
L 235.13006 119.426813 
L 250.378739 142.960786 
L 254.648369 149.074981 
L 258.308052 153.961285 
L 261.357788 157.71437 
L 264.407524 161.11941 
L 266.847313 163.554807 
L 269.287101 165.70122 
L 271.72689 167.527832 
L 273.556732 168.66891 
L 275.386573 169.598645 
L 277.216415 170.303109 
L 279.046256 170.768105 
L 280.876098 170.979174 
L 282.705939 170.92159 
L 284.535781 170.580361 
L 286.365622 169.940232 
L 288.195464 168.98568 
L 290.025305 167.700918 
L 291.855147 166.069895 
L 293.684988 164.076291 
L 295.51483 161.703525 
L 297.344671 158.934747 
L 299.174513 155.752845 
L 301.004354 152.140438 
L 302.834196 148.079883 
L 304.664037 143.553269 
L 306.493879 138.542422 
L 308.933667 131.076131 
L 311.373456 122.671723 
L 313.813245 113.283915 
L 316.253033 102.866585 
L 318.692822 91.372775 
L 321.132611 78.754685 
L 323.572399 64.963677 
L 326.012188 49.950277 
L 328.451977 33.664171 
L 330.281818 20.583636 
L 330.281818 20.583636 
" style="fill:none;stroke:#1f77b4;stroke-linecap:square;stroke-width:1.5;"/>
   </g>
   <g id="patch_3">
    <path d="M 10.7 228.14 
L 10.7 10.7 
" style="fill:none;stroke:#000000;stroke-linecap:square;stroke-linejoin:miter;stroke-width:0.8;"/>
   </g>
   <g id="patch_4">
    <path d="M 345.5 228.14 
L 345.5 10.7 
" style="fill:none;stroke:#000000;stroke-linecap:square;stroke-linejoin:miter;stroke-width:0.8;"/>
   </g>
   <g id="patch_5">
    <path d="M 10.7 228.14 
L 345.5 228.14 
" style="fill:none;stroke:#000000;stroke-linecap:square;stroke-linejoin:miter;stroke-width:0.8;"/>
   </g>
   <g id="patch_6">
    <path d="M 10.7 10.7 
L 345.5 10.7 
" style="fill:none;stroke:#000000;stroke-linecap:square;stroke-linejoin:miter;stroke-width:0.8;"/>
   </g>
   <g id="patch_7">
    <path d="M 76.164856 174.127292 
Q 72.571931 193.487686 69.183009 211.748814 
" style="fill:none;stroke:#000000;stroke-linecap:round;"/>
    <path d="M 73.22744 206.396938 
L 69.183009 211.748814 
L 67.328167 205.302144 
" style="fill:none;stroke:#000000;stroke-linecap:round;"/>
   </g>
   <g id="text_1">
    <!--   global -->
    <defs>
     <path id="DejaVuSans-20"/>
     <path d="M 45.40625 27.984375 
Q 45.40625 37.75 41.375 43.109375 
Q 37.359375 48.484375 30.078125 48.484375 
Q 22.859375 48.484375 18.828125 43.109375 
Q 14.796875 37.75 14.796875 27.984375 
Q 14.796875 18.265625 18.828125 12.890625 
Q 22.859375 7.515625 30.078125 7.515625 
Q 37.359375 7.515625 41.375 12.890625 
Q 45.40625 18.265625 45.40625 27.984375 
z
M 54.390625 6.78125 
Q 54.390625 -7.171875 48.1875 -13.984375 
Q 42 -20.796875 29.203125 -20.796875 
Q 24.46875 -20.796875 20.265625 -20.09375 
Q 16.0625 -19.390625 12.109375 -17.921875 
L 12.109375 -9.1875 
Q 16.0625 -11.328125 19.921875 -12.34375 
Q 23.78125 -13.375 27.78125 -13.375 
Q 36.625 -13.375 41.015625 -8.765625 
Q 45.40625 -4.15625 45.40625 5.171875 
L 45.40625 9.625 
Q 42.625 4.78125 38.28125 2.390625 
Q 33.9375 0 27.875 0 
Q 17.828125 0 11.671875 7.65625 
Q 5.515625 15.328125 5.515625 27.984375 
Q 5.515625 40.671875 11.671875 48.328125 
Q 17.828125 56 27.875 56 
Q 33.9375 56 38.28125 53.609375 
Q 42.625 51.21875 45.40625 46.390625 
L 45.40625 54.6875 
L 54.390625 54.6875 
z
" id="DejaVuSans-67"/>
     <path d="M 9.421875 75.984375 
L 18.40625 75.984375 
L 18.40625 0 
L 9.421875 0 
z
" id="DejaVuSans-6c"/>
     <path d="M 30.609375 48.390625 
Q 23.390625 48.390625 19.1875 42.75 
Q 14.984375 37.109375 14.984375 27.296875 
Q 14.984375 17.484375 19.15625 11.84375 
Q 23.34375 6.203125 30.609375 6.203125 
Q 37.796875 6.203125 41.984375 11.859375 
Q 46.1875 17.53125 46.1875 27.296875 
Q 46.1875 37.015625 41.984375 42.703125 
Q 37.796875 48.390625 30.609375 48.390625 
z
M 30.609375 56 
Q 42.328125 56 49.015625 48.375 
Q 55.71875 40.765625 55.71875 27.296875 
Q 55.71875 13.875 49.015625 6.21875 
Q 42.328125 -1.421875 30.609375 -1.421875 
Q 18.84375 -1.421875 12.171875 6.21875 
Q 5.515625 13.875 5.515625 27.296875 
Q 5.515625 40.765625 12.171875 48.375 
Q 18.84375 56 30.609375 56 
z
" id="DejaVuSans-6f"/>
     <path d="M 48.6875 27.296875 
Q 48.6875 37.203125 44.609375 42.84375 
Q 40.53125 48.484375 33.40625 48.484375 
Q 26.265625 48.484375 22.1875 42.84375 
Q 18.109375 37.203125 18.109375 27.296875 
Q 18.109375 17.390625 22.1875 11.75 
Q 26.265625 6.109375 33.40625 6.109375 
Q 40.53125 6.109375 44.609375 11.75 
Q 48.6875 17.390625 48.6875 27.296875 
z
M 18.109375 46.390625 
Q 20.953125 51.265625 25.265625 53.625 
Q 29.59375 56 35.59375 56 
Q 45.5625 56 51.78125 48.09375 
Q 58.015625 40.1875 58.015625 27.296875 
Q 58.015625 14.40625 51.78125 6.484375 
Q 45.5625 -1.421875 35.59375 -1.421875 
Q 29.59375 -1.421875 25.265625 0.953125 
Q 20.953125 3.328125 18.109375 8.203125 
L 18.109375 0 
L 9.078125 0 
L 9.078125 75.984375 
L 18.109375 75.984375 
z
" id="DejaVuSans-62"/>
     <path d="M 34.28125 27.484375 
Q 23.390625 27.484375 19.1875 25 
Q 14.984375 22.515625 14.984375 16.5 
Q 14.984375 11.71875 18.140625 8.90625 
Q 21.296875 6.109375 26.703125 6.109375 
Q 34.1875 6.109375 38.703125 11.40625 
Q 43.21875 16.703125 43.21875 25.484375 
L 43.21875 27.484375 
z
M 52.203125 31.203125 
L 52.203125 0 
L 43.21875 0 
L 43.21875 8.296875 
Q 40.140625 3.328125 35.546875 0.953125 
Q 30.953125 -1.421875 24.3125 -1.421875 
Q 15.921875 -1.421875 10.953125 3.296875 
Q 6 8.015625 6 15.921875 
Q 6 25.140625 12.171875 29.828125 
Q 18.359375 34.515625 30.609375 34.515625 
L 43.21875 34.515625 
L 43.21875 35.40625 
Q 43.21875 41.609375 39.140625 45 
Q 35.0625 48.390625 27.6875 48.390625 
Q 23 48.390625 18.546875 47.265625 
Q 14.109375 46.140625 10.015625 43.890625 
L 10.015625 52.203125 
Q 14.9375 54.109375 19.578125 55.046875 
Q 24.21875 56 28.609375 56 
Q 40.484375 56 46.34375 49.84375 
Q 52.203125 43.703125 52.203125 31.203125 
z
" id="DejaVuSans-61"/>
    </defs>
    <g transform="translate(44.216597 150.245397)scale(0.15 -0.15)">
     <use xlink:href="#DejaVuSans-20"/>
     <use x="31.787109" xlink:href="#DejaVuSans-20"/>
     <use x="63.574219" xlink:href="#DejaVuSans-67"/>
     <use x="127.050781" xlink:href="#DejaVuSans-6c"/>
     <use x="154.833984" xlink:href="#DejaVuSans-6f"/>
     <use x="216.015625" xlink:href="#DejaVuSans-62"/>
     <use x="279.492188" xlink:href="#DejaVuSans-61"/>
     <use x="340.771484" xlink:href="#DejaVuSans-6c"/>
    </g>
    <!-- minimum -->
    <defs>
     <path d="M 52 44.1875 
Q 55.375 50.25 60.0625 53.125 
Q 64.75 56 71.09375 56 
Q 79.640625 56 84.28125 50.015625 
Q 88.921875 44.046875 88.921875 33.015625 
L 88.921875 0 
L 79.890625 0 
L 79.890625 32.71875 
Q 79.890625 40.578125 77.09375 44.375 
Q 74.3125 48.1875 68.609375 48.1875 
Q 61.625 48.1875 57.5625 43.546875 
Q 53.515625 38.921875 53.515625 30.90625 
L 53.515625 0 
L 44.484375 0 
L 44.484375 32.71875 
Q 44.484375 40.625 41.703125 44.40625 
Q 38.921875 48.1875 33.109375 48.1875 
Q 26.21875 48.1875 22.15625 43.53125 
Q 18.109375 38.875 18.109375 30.90625 
L 18.109375 0 
L 9.078125 0 
L 9.078125 54.6875 
L 18.109375 54.6875 
L 18.109375 46.1875 
Q 21.1875 51.21875 25.484375 53.609375 
Q 29.78125 56 35.6875 56 
Q 41.65625 56 45.828125 52.96875 
Q 50 49.953125 52 44.1875 
z
" id="DejaVuSans-6d"/>
     <path d="M 9.421875 54.6875 
L 18.40625 54.6875 
L 18.40625 0 
L 9.421875 0 
z
M 9.421875 75.984375 
L 18.40625 75.984375 
L 18.40625 64.59375 
L 9.421875 64.59375 
z
" id="DejaVuSans-69"/>
     <path d="M 54.890625 33.015625 
L 54.890625 0 
L 45.90625 0 
L 45.90625 32.71875 
Q 45.90625 40.484375 42.875 44.328125 
Q 39.84375 48.1875 33.796875 48.1875 
Q 26.515625 48.1875 22.3125 43.546875 
Q 18.109375 38.921875 18.109375 30.90625 
L 18.109375 0 
L 9.078125 0 
L 9.078125 54.6875 
L 18.109375 54.6875 
L 18.109375 46.1875 
Q 21.34375 51.125 25.703125 53.5625 
Q 30.078125 56 35.796875 56 
Q 45.21875 56 50.046875 50.171875 
Q 54.890625 44.34375 54.890625 33.015625 
z
" id="DejaVuSans-6e"/>
     <path d="M 8.5 21.578125 
L 8.5 54.6875 
L 17.484375 54.6875 
L 17.484375 21.921875 
Q 17.484375 14.15625 20.5 10.265625 
Q 23.53125 6.390625 29.59375 6.390625 
Q 36.859375 6.390625 41.078125 11.03125 
Q 45.3125 15.671875 45.3125 23.6875 
L 45.3125 54.6875 
L 54.296875 54.6875 
L 54.296875 0 
L 45.3125 0 
L 45.3125 8.40625 
Q 42.046875 3.421875 37.71875 1 
Q 33.40625 -1.421875 27.6875 -1.421875 
Q 18.265625 -1.421875 13.375 4.4375 
Q 8.5 10.296875 8.5 21.578125 
z
M 31.109375 56 
z
" id="DejaVuSans-75"/>
    </defs>
    <g transform="translate(44.216597 167.042116)scale(0.15 -0.15)">
     <use xlink:href="#DejaVuSans-6d"/>
     <use x="97.412109" xlink:href="#DejaVuSans-69"/>
     <use x="125.195312" xlink:href="#DejaVuSans-6e"/>
     <use x="188.574219" xlink:href="#DejaVuSans-69"/>
     <use x="216.357422" xlink:href="#DejaVuSans-6d"/>
     <use x="313.769531" xlink:href="#DejaVuSans-75"/>
     <use x="377.148438" xlink:href="#DejaVuSans-6d"/>
    </g>
   </g>
   <g id="patch_8">
    <path d="M 286.660674 146.754405 
Q 284.699844 152.537815 283.098005 157.262394 
" style="fill:none;stroke:#000000;stroke-linecap:round;"/>
    <path d="M 287.865696 152.543376 
L 283.098005 157.262394 
L 282.183405 150.616831 
" style="fill:none;stroke:#000000;stroke-linecap:round;"/>
   </g>
   <g id="text_2">
    <!--  local -->
    <defs>
     <path d="M 48.78125 52.59375 
L 48.78125 44.1875 
Q 44.96875 46.296875 41.140625 47.34375 
Q 37.3125 48.390625 33.40625 48.390625 
Q 24.65625 48.390625 19.8125 42.84375 
Q 14.984375 37.3125 14.984375 27.296875 
Q 14.984375 17.28125 19.8125 11.734375 
Q 24.65625 6.203125 33.40625 6.203125 
Q 37.3125 6.203125 41.140625 7.25 
Q 44.96875 8.296875 48.78125 10.40625 
L 48.78125 2.09375 
Q 45.015625 0.34375 40.984375 -0.53125 
Q 36.96875 -1.421875 32.421875 -1.421875 
Q 20.0625 -1.421875 12.78125 6.34375 
Q 5.515625 14.109375 5.515625 27.296875 
Q 5.515625 40.671875 12.859375 48.328125 
Q 20.21875 56 33.015625 56 
Q 37.15625 56 41.109375 55.140625 
Q 45.0625 54.296875 48.78125 52.59375 
z
" id="DejaVuSans-63"/>
    </defs>
    <g transform="translate(257.698105 122.948147)scale(0.15 -0.15)">
     <use xlink:href="#DejaVuSans-20"/>
     <use x="31.787109" xlink:href="#DejaVuSans-6c"/>
     <use x="59.570312" xlink:href="#DejaVuSans-6f"/>
     <use x="120.751953" xlink:href="#DejaVuSans-63"/>
     <use x="175.732422" xlink:href="#DejaVuSans-61"/>
     <use x="237.011719" xlink:href="#DejaVuSans-6c"/>
    </g>
    <!-- minimum -->
    <g transform="translate(257.698105 139.744866)scale(0.15 -0.15)">
     <use xlink:href="#DejaVuSans-6d"/>
     <use x="97.412109" xlink:href="#DejaVuSans-69"/>
     <use x="125.195312" xlink:href="#DejaVuSans-6e"/>
     <use x="188.574219" xlink:href="#DejaVuSans-69"/>
     <use x="216.357422" xlink:href="#DejaVuSans-6d"/>
     <use x="313.769531" xlink:href="#DejaVuSans-75"/>
     <use x="377.148438" xlink:href="#DejaVuSans-6d"/>
    </g>
   </g>
  </g>
 </g>
 <defs>
  <clipPath id="p78290a389c">
   <rect height="217.44" width="334.8" x="10.7" y="10.7"/>
  </clipPath>
 </defs>
</svg>
