<?xml version="1.0" encoding="utf-8" standalone="no"?>
<!DOCTYPE svg PUBLIC "-//W3C//DTD SVG 1.1//EN"
  "http://www.w3.org/Graphics/SVG/1.1/DTD/svg11.dtd">
<!-- Created with matplotlib (http://matplotlib.org/) -->
<svg height="252pt" version="1.1" viewBox="0 0 383 252" width="383pt" xmlns="http://www.w3.org/2000/svg" xmlns:xlink="http://www.w3.org/1999/xlink">
 <defs>
  <style type="text/css">
*{stroke-linecap:butt;stroke-linejoin:round;}
  </style>
 </defs>
 <g id="figure_1">
  <g id="patch_1">
   <path d="M -0 252.018125 
L 383.982812 252.018125 
L 383.982812 0 
L -0 0 
z
" style="fill:none;"/>
  </g>
  <g id="axes_1">
   <g id="patch_2">
    <path d="M 38.482813 228.14 
L 373.282813 228.14 
L 373.282813 10.7 
L 38.482813 10.7 
z
" style="fill:#ffffff;"/>
   </g>
   <g id="PathCollection_1">
    <defs>
     <path d="M 0 3 
C 0.795609 3 1.55874 2.683901 2.12132 2.12132 
C 2.683901 1.55874 3 0.795609 3 0 
C 3 -0.795609 2.683901 -1.55874 2.12132 -2.12132 
C 1.55874 -2.683901 0.795609 -3 0 -3 
C -0.795609 -3 -1.55874 -2.683901 -2.12132 -2.12132 
C -2.683901 -1.55874 -3 -0.795609 -3 0 
C -3 0.795609 -2.683901 1.55874 -2.12132 2.12132 
C -1.55874 2.683901 -0.795609 3 0 3 
z
" id="mb4bba3b16f" style="stroke:#1f77b4;"/>
    </defs>
    <g clip-path="url(#p34be537a2d)">
     <use style="fill:#1f77b4;stroke:#1f77b4;" x="207.420003" xlink:href="#mb4bba3b16f" y="119.42"/>
    </g>
   </g>
   <g id="matplotlib.axis_1">
    <g id="xtick_1">
     <g id="line2d_1">
      <path clip-path="url(#p34be537a2d)" d="M 84.444796 228.14 
L 84.444796 10.7 
" style="fill:none;stroke:#b0b0b0;stroke-linecap:square;stroke-width:0.8;"/>
     </g>
     <g id="line2d_2">
      <defs>
       <path d="M 0 0 
L 0 3.5 
" id="m7efcf3f661" style="stroke:#000000;stroke-width:0.8;"/>
      </defs>
      <g>
       <use style="stroke:#000000;stroke-width:0.8;" x="84.444796" xlink:href="#m7efcf3f661" y="228.14"/>
      </g>
     </g>
     <g id="text_1">
      <!-- −0.4 -->
      <defs>
       <path d="M 10.59375 35.5 
L 73.1875 35.5 
L 73.1875 27.203125 
L 10.59375 27.203125 
z
" id="DejaVuSans-2212"/>
       <path d="M 31.78125 66.40625 
Q 24.171875 66.40625 20.328125 58.90625 
Q 16.5 51.421875 16.5 36.375 
Q 16.5 21.390625 20.328125 13.890625 
Q 24.171875 6.390625 31.78125 6.390625 
Q 39.453125 6.390625 43.28125 13.890625 
Q 47.125 21.390625 47.125 36.375 
Q 47.125 51.421875 43.28125 58.90625 
Q 39.453125 66.40625 31.78125 66.40625 
z
M 31.78125 74.21875 
Q 44.046875 74.21875 50.515625 64.515625 
Q 56.984375 54.828125 56.984375 36.375 
Q 56.984375 17.96875 50.515625 8.265625 
Q 44.046875 -1.421875 31.78125 -1.421875 
Q 19.53125 -1.421875 13.0625 8.265625 
Q 6.59375 17.96875 6.59375 36.375 
Q 6.59375 54.828125 13.0625 64.515625 
Q 19.53125 74.21875 31.78125 74.21875 
z
" id="DejaVuSans-30"/>
       <path d="M 10.6875 12.40625 
L 21 12.40625 
L 21 0 
L 10.6875 0 
z
" id="DejaVuSans-2e"/>
       <path d="M 37.796875 64.3125 
L 12.890625 25.390625 
L 37.796875 25.390625 
z
M 35.203125 72.90625 
L 47.609375 72.90625 
L 47.609375 25.390625 
L 58.015625 25.390625 
L 58.015625 17.1875 
L 47.609375 17.1875 
L 47.609375 0 
L 37.796875 0 
L 37.796875 17.1875 
L 4.890625 17.1875 
L 4.890625 26.703125 
z
" id="DejaVuSans-34"/>
      </defs>
      <g transform="translate(72.30339 242.738437)scale(0.1 -0.1)">
       <use xlink:href="#DejaVuSans-2212"/>
       <use x="83.789062" xlink:href="#DejaVuSans-30"/>
       <use x="147.412109" xlink:href="#DejaVuSans-2e"/>
       <use x="179.199219" xlink:href="#DejaVuSans-34"/>
      </g>
     </g>
    </g>
    <g id="xtick_2">
     <g id="line2d_3">
      <path clip-path="url(#p34be537a2d)" d="M 145.932399 228.14 
L 145.932399 10.7 
" style="fill:none;stroke:#b0b0b0;stroke-linecap:square;stroke-width:0.8;"/>
     </g>
     <g id="line2d_4">
      <g>
       <use style="stroke:#000000;stroke-width:0.8;" x="145.932399" xlink:href="#m7efcf3f661" y="228.14"/>
      </g>
     </g>
     <g id="text_2">
      <!-- −0.2 -->
      <defs>
       <path d="M 19.1875 8.296875 
L 53.609375 8.296875 
L 53.609375 0 
L 7.328125 0 
L 7.328125 8.296875 
Q 12.9375 14.109375 22.625 23.890625 
Q 32.328125 33.6875 34.8125 36.53125 
Q 39.546875 41.84375 41.421875 45.53125 
Q 43.3125 49.21875 43.3125 52.78125 
Q 43.3125 58.59375 39.234375 62.25 
Q 35.15625 65.921875 28.609375 65.921875 
Q 23.96875 65.921875 18.8125 64.3125 
Q 13.671875 62.703125 7.8125 59.421875 
L 7.8125 69.390625 
Q 13.765625 71.78125 18.9375 73 
Q 24.125 74.21875 28.421875 74.21875 
Q 39.75 74.21875 46.484375 68.546875 
Q 53.21875 62.890625 53.21875 53.421875 
Q 53.21875 48.921875 51.53125 44.890625 
Q 49.859375 40.875 45.40625 35.40625 
Q 44.1875 33.984375 37.640625 27.21875 
Q 31.109375 20.453125 19.1875 8.296875 
z
" id="DejaVuSans-32"/>
      </defs>
      <g transform="translate(133.790993 242.738437)scale(0.1 -0.1)">
       <use xlink:href="#DejaVuSans-2212"/>
       <use x="83.789062" xlink:href="#DejaVuSans-30"/>
       <use x="147.412109" xlink:href="#DejaVuSans-2e"/>
       <use x="179.199219" xlink:href="#DejaVuSans-32"/>
      </g>
     </g>
    </g>
    <g id="xtick_3">
     <g id="line2d_5">
      <path clip-path="url(#p34be537a2d)" d="M 207.420003 228.14 
L 207.420003 10.7 
" style="fill:none;stroke:#b0b0b0;stroke-linecap:square;stroke-width:0.8;"/>
     </g>
     <g id="line2d_6">
      <g>
       <use style="stroke:#000000;stroke-width:0.8;" x="207.420003" xlink:href="#m7efcf3f661" y="228.14"/>
      </g>
     </g>
     <g id="text_3">
      <!-- 0.0 -->
      <g transform="translate(199.46844 242.738437)scale(0.1 -0.1)">
       <use xlink:href="#DejaVuSans-30"/>
       <use x="63.623047" xlink:href="#DejaVuSans-2e"/>
       <use x="95.410156" xlink:href="#DejaVuSans-30"/>
      </g>
     </g>
    </g>
    <g id="xtick_4">
     <g id="line2d_7">
      <path clip-path="url(#p34be537a2d)" d="M 268.907606 228.14 
L 268.907606 10.7 
" style="fill:none;stroke:#b0b0b0;stroke-linecap:square;stroke-width:0.8;"/>
     </g>
     <g id="line2d_8">
      <g>
       <use style="stroke:#000000;stroke-width:0.8;" x="268.907606" xlink:href="#m7efcf3f661" y="228.14"/>
      </g>
     </g>
     <g id="text_4">
      <!-- 0.2 -->
      <g transform="translate(260.956043 242.738437)scale(0.1 -0.1)">
       <use xlink:href="#DejaVuSans-30"/>
       <use x="63.623047" xlink:href="#DejaVuSans-2e"/>
       <use x="95.410156" xlink:href="#DejaVuSans-32"/>
      </g>
     </g>
    </g>
    <g id="xtick_5">
     <g id="line2d_9">
      <path clip-path="url(#p34be537a2d)" d="M 330.395209 228.14 
L 330.395209 10.7 
" style="fill:none;stroke:#b0b0b0;stroke-linecap:square;stroke-width:0.8;"/>
     </g>
     <g id="line2d_10">
      <g>
       <use style="stroke:#000000;stroke-width:0.8;" x="330.395209" xlink:href="#m7efcf3f661" y="228.14"/>
      </g>
     </g>
     <g id="text_5">
      <!-- 0.4 -->
      <g transform="translate(322.443647 242.738437)scale(0.1 -0.1)">
       <use xlink:href="#DejaVuSans-30"/>
       <use x="63.623047" xlink:href="#DejaVuSans-2e"/>
       <use x="95.410156" xlink:href="#DejaVuSans-34"/>
      </g>
     </g>
    </g>
   </g>
   <g id="matplotlib.axis_2">
    <g id="ytick_1">
     <g id="line2d_11">
      <path clip-path="url(#p34be537a2d)" d="M 38.482813 198.489091 
L 373.282813 198.489091 
" style="fill:none;stroke:#b0b0b0;stroke-linecap:square;stroke-width:0.8;"/>
     </g>
     <g id="line2d_12">
      <defs>
       <path d="M 0 0 
L -3.5 0 
" id="m82bfdc7085" style="stroke:#000000;stroke-width:0.8;"/>
      </defs>
      <g>
       <use style="stroke:#000000;stroke-width:0.8;" x="38.482813" xlink:href="#m82bfdc7085" y="198.489091"/>
      </g>
     </g>
     <g id="text_6">
      <!-- −0.2 -->
      <g transform="translate(7.2 202.28831)scale(0.1 -0.1)">
       <use xlink:href="#DejaVuSans-2212"/>
       <use x="83.789062" xlink:href="#DejaVuSans-30"/>
       <use x="147.412109" xlink:href="#DejaVuSans-2e"/>
       <use x="179.199219" xlink:href="#DejaVuSans-32"/>
      </g>
     </g>
    </g>
    <g id="ytick_2">
     <g id="line2d_13">
      <path clip-path="url(#p34be537a2d)" d="M 38.482813 158.954545 
L 373.282813 158.954545 
" style="fill:none;stroke:#b0b0b0;stroke-linecap:square;stroke-width:0.8;"/>
     </g>
     <g id="line2d_14">
      <g>
       <use style="stroke:#000000;stroke-width:0.8;" x="38.482813" xlink:href="#m82bfdc7085" y="158.954545"/>
      </g>
     </g>
     <g id="text_7">
      <!-- −0.1 -->
      <defs>
       <path d="M 12.40625 8.296875 
L 28.515625 8.296875 
L 28.515625 63.921875 
L 10.984375 60.40625 
L 10.984375 69.390625 
L 28.421875 72.90625 
L 38.28125 72.90625 
L 38.28125 8.296875 
L 54.390625 8.296875 
L 54.390625 0 
L 12.40625 0 
z
" id="DejaVuSans-31"/>
      </defs>
      <g transform="translate(7.2 162.753764)scale(0.1 -0.1)">
       <use xlink:href="#DejaVuSans-2212"/>
       <use x="83.789062" xlink:href="#DejaVuSans-30"/>
       <use x="147.412109" xlink:href="#DejaVuSans-2e"/>
       <use x="179.199219" xlink:href="#DejaVuSans-31"/>
      </g>
     </g>
    </g>
    <g id="ytick_3">
     <g id="line2d_15">
      <path clip-path="url(#p34be537a2d)" d="M 38.482813 119.42 
L 373.282813 119.42 
" style="fill:none;stroke:#b0b0b0;stroke-linecap:square;stroke-width:0.8;"/>
     </g>
     <g id="line2d_16">
      <g>
       <use style="stroke:#000000;stroke-width:0.8;" x="38.482813" xlink:href="#m82bfdc7085" y="119.42"/>
      </g>
     </g>
     <g id="text_8">
      <!-- 0.0 -->
      <g transform="translate(15.579688 123.219219)scale(0.1 -0.1)">
       <use xlink:href="#DejaVuSans-30"/>
       <use x="63.623047" xlink:href="#DejaVuSans-2e"/>
       <use x="95.410156" xlink:href="#DejaVuSans-30"/>
      </g>
     </g>
    </g>
    <g id="ytick_4">
     <g id="line2d_17">
      <path clip-path="url(#p34be537a2d)" d="M 38.482813 79.885455 
L 373.282813 79.885455 
" style="fill:none;stroke:#b0b0b0;stroke-linecap:square;stroke-width:0.8;"/>
     </g>
     <g id="line2d_18">
      <g>
       <use style="stroke:#000000;stroke-width:0.8;" x="38.482813" xlink:href="#m82bfdc7085" y="79.885455"/>
      </g>
     </g>
     <g id="text_9">
      <!-- 0.1 -->
      <g transform="translate(15.579688 83.684673)scale(0.1 -0.1)">
       <use xlink:href="#DejaVuSans-30"/>
       <use x="63.623047" xlink:href="#DejaVuSans-2e"/>
       <use x="95.410156" xlink:href="#DejaVuSans-31"/>
      </g>
     </g>
    </g>
    <g id="ytick_5">
     <g id="line2d_19">
      <path clip-path="url(#p34be537a2d)" d="M 38.482813 40.350909 
L 373.282813 40.350909 
" style="fill:none;stroke:#b0b0b0;stroke-linecap:square;stroke-width:0.8;"/>
     </g>
     <g id="line2d_20">
      <g>
       <use style="stroke:#000000;stroke-width:0.8;" x="38.482813" xlink:href="#m82bfdc7085" y="40.350909"/>
      </g>
     </g>
     <g id="text_10">
      <!-- 0.2 -->
      <g transform="translate(15.579688 44.150128)scale(0.1 -0.1)">
       <use xlink:href="#DejaVuSans-30"/>
       <use x="63.623047" xlink:href="#DejaVuSans-2e"/>
       <use x="95.410156" xlink:href="#DejaVuSans-32"/>
      </g>
     </g>
    </g>
   </g>
   <g id="line2d_21">
    <path clip-path="url(#p34be537a2d)" d="M 53.700994 218.256364 
L 56.775374 214.342444 
L 59.849755 210.507593 
L 62.924135 206.751811 
L 65.998515 203.075098 
L 69.072895 199.477455 
L 72.147275 195.95888 
L 75.221655 192.519375 
L 78.296036 189.158938 
L 81.370416 185.877571 
L 84.444796 182.675273 
L 87.519176 179.552044 
L 90.593556 176.507884 
L 93.667936 173.542793 
L 96.742317 170.656771 
L 99.816697 167.849818 
L 102.891077 165.121935 
L 105.965457 162.47312 
L 109.039837 159.903375 
L 112.114217 157.412698 
L 115.188598 155.001091 
L 118.262978 152.668553 
L 121.337358 150.415084 
L 124.411738 148.240684 
L 127.486118 146.145353 
L 130.560498 144.129091 
L 133.634879 142.191898 
L 136.709259 140.333775 
L 139.783639 138.55472 
L 142.858019 136.854735 
L 145.932399 135.233818 
L 149.006779 133.691971 
L 152.08116 132.229193 
L 155.15554 130.845484 
L 158.22992 129.540844 
L 161.3043 128.315273 
L 164.37868 127.168771 
L 167.45306 126.101338 
L 170.527441 125.112975 
L 173.601821 124.20368 
L 176.676201 123.373455 
L 179.750581 122.622298 
L 182.824961 121.950211 
L 185.899341 121.357193 
L 188.973722 120.843244 
L 192.048102 120.408364 
L 195.122482 120.052553 
L 198.196862 119.775811 
L 201.271242 119.578138 
L 204.345622 119.459535 
L 207.420003 119.42 
L 210.494383 119.459535 
L 213.568763 119.578138 
L 216.643143 119.775811 
L 219.717523 120.052553 
L 222.791903 120.408364 
L 225.866284 120.843244 
L 228.940664 121.357193 
L 232.015044 121.950211 
L 235.089424 122.622298 
L 238.163804 123.373455 
L 241.238184 124.20368 
L 244.312565 125.112975 
L 247.386945 126.101338 
L 250.461325 127.168771 
L 253.535705 128.315273 
L 256.610085 129.540844 
L 259.684465 130.845484 
L 262.758846 132.229193 
L 265.833226 133.691971 
L 268.907606 135.233818 
L 271.981986 136.854735 
L 275.056366 138.55472 
L 278.130746 140.333775 
L 281.205127 142.191898 
L 284.279507 144.129091 
L 287.353887 146.145353 
L 290.428267 148.240684 
L 293.502647 150.415084 
L 296.577027 152.668553 
L 299.651408 155.001091 
L 302.725788 157.412698 
L 305.800168 159.903375 
L 308.874548 162.47312 
L 311.948928 165.121935 
L 315.023308 167.849818 
L 318.097689 170.656771 
L 321.172069 173.542793 
L 324.246449 176.507884 
L 327.320829 179.552044 
L 330.395209 182.675273 
L 333.469589 185.877571 
L 336.54397 189.158938 
L 339.61835 192.519375 
L 342.69273 195.95888 
L 345.76711 199.477455 
L 348.84149 203.075098 
L 351.91587 206.751811 
L 354.990251 210.507593 
L 358.064631 214.342444 
" style="fill:none;stroke:#1f77b4;stroke-linecap:square;stroke-width:1.5;"/>
   </g>
   <g id="line2d_22">
    <path clip-path="url(#p34be537a2d)" d="M 53.700994 20.583636 
L 56.775374 24.497556 
L 59.849755 28.332407 
L 62.924135 32.088189 
L 65.998515 35.764902 
L 69.072895 39.362545 
L 72.147275 42.88112 
L 75.221655 46.320625 
L 78.296036 49.681062 
L 81.370416 52.962429 
L 84.444796 56.164727 
L 87.519176 59.287956 
L 90.593556 62.332116 
L 93.667936 65.297207 
L 96.742317 68.183229 
L 99.816697 70.990182 
L 102.891077 73.718065 
L 105.965457 76.36688 
L 109.039837 78.936625 
L 112.114217 81.427302 
L 115.188598 83.838909 
L 118.262978 86.171447 
L 121.337358 88.424916 
L 124.411738 90.599316 
L 127.486118 92.694647 
L 130.560498 94.710909 
L 133.634879 96.648102 
L 136.709259 98.506225 
L 139.783639 100.28528 
L 142.858019 101.985265 
L 145.932399 103.606182 
L 149.006779 105.148029 
L 152.08116 106.610807 
L 155.15554 107.994516 
L 158.22992 109.299156 
L 161.3043 110.524727 
L 164.37868 111.671229 
L 167.45306 112.738662 
L 170.527441 113.727025 
L 173.601821 114.63632 
L 176.676201 115.466545 
L 179.750581 116.217702 
L 182.824961 116.889789 
L 185.899341 117.482807 
L 188.973722 117.996756 
L 192.048102 118.431636 
L 195.122482 118.787447 
L 198.196862 119.064189 
L 201.271242 119.261862 
L 204.345622 119.380465 
L 207.420003 119.42 
L 210.494383 119.380465 
L 213.568763 119.261862 
L 216.643143 119.064189 
L 219.717523 118.787447 
L 222.791903 118.431636 
L 225.866284 117.996756 
L 228.940664 117.482807 
L 232.015044 116.889789 
L 235.089424 116.217702 
L 238.163804 115.466545 
L 241.238184 114.63632 
L 244.312565 113.727025 
L 247.386945 112.738662 
L 250.461325 111.671229 
L 253.535705 110.524727 
L 256.610085 109.299156 
L 259.684465 107.994516 
L 262.758846 106.610807 
L 265.833226 105.148029 
L 268.907606 103.606182 
L 271.981986 101.985265 
L 275.056366 100.28528 
L 278.130746 98.506225 
L 281.205127 96.648102 
L 284.279507 94.710909 
L 287.353887 92.694647 
L 290.428267 90.599316 
L 293.502647 88.424916 
L 296.577027 86.171447 
L 299.651408 83.838909 
L 302.725788 81.427302 
L 305.800168 78.936625 
L 308.874548 76.36688 
L 311.948928 73.718065 
L 315.023308 70.990182 
L 318.097689 68.183229 
L 321.172069 65.297207 
L 324.246449 62.332116 
L 327.320829 59.287956 
L 330.395209 56.164727 
L 333.469589 52.962429 
L 336.54397 49.681062 
L 339.61835 46.320625 
L 342.69273 42.88112 
L 345.76711 39.362545 
L 348.84149 35.764902 
L 351.91587 32.088189 
L 354.990251 28.332407 
L 358.064631 24.497556 
" style="fill:none;stroke:#ff7f0e;stroke-linecap:square;stroke-width:1.5;"/>
   </g>
   <g id="line2d_23">
    <path clip-path="url(#p34be537a2d)" d="M 53.700994 168.838182 
L 56.775374 165.931997 
L 59.849755 163.142045 
L 62.924135 160.465951 
L 65.998515 157.901345 
L 69.072895 155.445855 
L 72.147275 153.097107 
L 75.221655 150.852731 
L 78.296036 148.710354 
L 81.370416 146.667604 
L 84.444796 144.722109 
L 87.519176 142.871497 
L 90.593556 141.113396 
L 93.667936 139.445433 
L 96.742317 137.865238 
L 99.816697 136.370436 
L 102.891077 134.958658 
L 105.965457 133.62753 
L 109.039837 132.37468 
L 112.114217 131.197736 
L 115.188598 130.094327 
L 118.262978 129.06208 
L 121.337358 128.098623 
L 124.411738 127.201585 
L 127.486118 126.368592 
L 130.560498 125.597273 
L 133.634879 124.885256 
L 136.709259 124.230168 
L 139.783639 123.629638 
L 142.858019 123.081294 
L 145.932399 122.582764 
L 149.006779 122.131674 
L 152.08116 121.725655 
L 155.15554 121.362332 
L 158.22992 121.039335 
L 161.3043 120.754291 
L 164.37868 120.504828 
L 167.45306 120.288574 
L 170.527441 120.103157 
L 173.601821 119.946205 
L 176.676201 119.815345 
L 179.750581 119.708207 
L 182.824961 119.622417 
L 185.899341 119.555603 
L 188.973722 119.505395 
L 192.048102 119.469418 
L 195.122482 119.445302 
L 198.196862 119.430674 
L 201.271242 119.423163 
L 204.345622 119.420395 
L 207.420003 119.42 
L 210.494383 119.419605 
L 213.568763 119.416837 
L 216.643143 119.409326 
L 219.717523 119.394698 
L 222.791903 119.370582 
L 225.866284 119.334605 
L 228.940664 119.284397 
L 232.015044 119.217583 
L 235.089424 119.131793 
L 238.163804 119.024655 
L 241.238184 118.893795 
L 244.312565 118.736843 
L 247.386945 118.551426 
L 250.461325 118.335172 
L 253.535705 118.085709 
L 256.610085 117.800665 
L 259.684465 117.477668 
L 262.758846 117.114345 
L 265.833226 116.708326 
L 268.907606 116.257236 
L 271.981986 115.758706 
L 275.056366 115.210362 
L 278.130746 114.609832 
L 281.205127 113.954744 
L 284.279507 113.242727 
L 287.353887 112.471408 
L 290.428267 111.638415 
L 293.502647 110.741377 
L 296.577027 109.77792 
L 299.651408 108.745673 
L 302.725788 107.642264 
L 305.800168 106.46532 
L 308.874548 105.21247 
L 311.948928 103.881342 
L 315.023308 102.469564 
L 318.097689 100.974762 
L 321.172069 99.394567 
L 324.246449 97.726604 
L 327.320829 95.968503 
L 330.395209 94.117891 
L 333.469589 92.172396 
L 336.54397 90.129646 
L 339.61835 87.987269 
L 342.69273 85.742893 
L 345.76711 83.394145 
L 348.84149 80.938655 
L 351.91587 78.374049 
L 354.990251 75.697955 
L 358.064631 72.908003 
" style="fill:none;stroke:#2ca02c;stroke-linecap:square;stroke-width:1.5;"/>
   </g>
   <g id="patch_3">
    <path d="M 38.482813 228.14 
L 38.482813 10.7 
" style="fill:none;stroke:#000000;stroke-linecap:square;stroke-linejoin:miter;stroke-width:0.8;"/>
   </g>
   <g id="patch_4">
    <path d="M 373.282813 228.14 
L 373.282813 10.7 
" style="fill:none;stroke:#000000;stroke-linecap:square;stroke-linejoin:miter;stroke-width:0.8;"/>
   </g>
   <g id="patch_5">
    <path d="M 38.482812 228.14 
L 373.282812 228.14 
" style="fill:none;stroke:#000000;stroke-linecap:square;stroke-linejoin:miter;stroke-width:0.8;"/>
   </g>
   <g id="patch_6">
    <path d="M 38.482812 10.7 
L 373.282812 10.7 
" style="fill:none;stroke:#000000;stroke-linecap:square;stroke-linejoin:miter;stroke-width:0.8;"/>
   </g>
   <g id="legend_1">
    <g id="patch_7">
     <path d="M 170.599219 223.14 
L 241.166406 223.14 
Q 243.166406 223.14 243.166406 221.14 
L 243.166406 178.105625 
Q 243.166406 176.105625 241.166406 176.105625 
L 170.599219 176.105625 
Q 168.599219 176.105625 168.599219 178.105625 
L 168.599219 221.14 
Q 168.599219 223.14 170.599219 223.14 
z
" style="fill:#ffffff;opacity:0.8;stroke:#cccccc;stroke-linejoin:miter;"/>
    </g>
    <g id="line2d_24">
     <path d="M 172.599219 184.204062 
L 192.599219 184.204062 
" style="fill:none;stroke:#1f77b4;stroke-linecap:square;stroke-width:1.5;"/>
    </g>
    <g id="line2d_25"/>
    <g id="text_11">
     <!-- y=-x^2 -->
     <defs>
      <path d="M 32.171875 -5.078125 
Q 28.375 -14.84375 24.75 -17.8125 
Q 21.140625 -20.796875 15.09375 -20.796875 
L 7.90625 -20.796875 
L 7.90625 -13.28125 
L 13.1875 -13.28125 
Q 16.890625 -13.28125 18.9375 -11.515625 
Q 21 -9.765625 23.484375 -3.21875 
L 25.09375 0.875 
L 2.984375 54.6875 
L 12.5 54.6875 
L 29.59375 11.921875 
L 46.6875 54.6875 
L 56.203125 54.6875 
z
" id="DejaVuSans-79"/>
      <path d="M 10.59375 45.40625 
L 73.1875 45.40625 
L 73.1875 37.203125 
L 10.59375 37.203125 
z
M 10.59375 25.484375 
L 73.1875 25.484375 
L 73.1875 17.1875 
L 10.59375 17.1875 
z
" id="DejaVuSans-3d"/>
      <path d="M 4.890625 31.390625 
L 31.203125 31.390625 
L 31.203125 23.390625 
L 4.890625 23.390625 
z
" id="DejaVuSans-2d"/>
      <path d="M 54.890625 54.6875 
L 35.109375 28.078125 
L 55.90625 0 
L 45.3125 0 
L 29.390625 21.484375 
L 13.484375 0 
L 2.875 0 
L 24.125 28.609375 
L 4.6875 54.6875 
L 15.28125 54.6875 
L 29.78125 35.203125 
L 44.28125 54.6875 
z
" id="DejaVuSans-78"/>
      <path d="M 46.6875 72.90625 
L 73.1875 45.703125 
L 63.375 45.703125 
L 41.890625 64.984375 
L 20.40625 45.703125 
L 10.59375 45.703125 
L 37.109375 72.90625 
z
" id="DejaVuSans-5e"/>
     </defs>
     <g transform="translate(200.599219 187.704062)scale(0.1 -0.1)">
      <use xlink:href="#DejaVuSans-79"/>
      <use x="59.179688" xlink:href="#DejaVuSans-3d"/>
      <use x="142.96875" xlink:href="#DejaVuSans-2d"/>
      <use x="179.052734" xlink:href="#DejaVuSans-78"/>
      <use x="238.232422" xlink:href="#DejaVuSans-5e"/>
      <use x="322.021484" xlink:href="#DejaVuSans-32"/>
     </g>
    </g>
    <g id="line2d_26">
     <path d="M 172.599219 198.882187 
L 192.599219 198.882187 
" style="fill:none;stroke:#ff7f0e;stroke-linecap:square;stroke-width:1.5;"/>
    </g>
    <g id="line2d_27"/>
    <g id="text_12">
     <!-- y=x^2 -->
     <g transform="translate(200.599219 202.382187)scale(0.1 -0.1)">
      <use xlink:href="#DejaVuSans-79"/>
      <use x="59.179688" xlink:href="#DejaVuSans-3d"/>
      <use x="142.96875" xlink:href="#DejaVuSans-78"/>
      <use x="202.148438" xlink:href="#DejaVuSans-5e"/>
      <use x="285.9375" xlink:href="#DejaVuSans-32"/>
     </g>
    </g>
    <g id="line2d_28">
     <path d="M 172.599219 213.560312 
L 192.599219 213.560312 
" style="fill:none;stroke:#2ca02c;stroke-linecap:square;stroke-width:1.5;"/>
    </g>
    <g id="line2d_29"/>
    <g id="text_13">
     <!-- y=x^3 -->
     <defs>
      <path d="M 40.578125 39.3125 
Q 47.65625 37.796875 51.625 33 
Q 55.609375 28.21875 55.609375 21.1875 
Q 55.609375 10.40625 48.1875 4.484375 
Q 40.765625 -1.421875 27.09375 -1.421875 
Q 22.515625 -1.421875 17.65625 -0.515625 
Q 12.796875 0.390625 7.625 2.203125 
L 7.625 11.71875 
Q 11.71875 9.328125 16.59375 8.109375 
Q 21.484375 6.890625 26.8125 6.890625 
Q 36.078125 6.890625 40.9375 10.546875 
Q 45.796875 14.203125 45.796875 21.1875 
Q 45.796875 27.640625 41.28125 31.265625 
Q 36.765625 34.90625 28.71875 34.90625 
L 20.21875 34.90625 
L 20.21875 43.015625 
L 29.109375 43.015625 
Q 36.375 43.015625 40.234375 45.921875 
Q 44.09375 48.828125 44.09375 54.296875 
Q 44.09375 59.90625 40.109375 62.90625 
Q 36.140625 65.921875 28.71875 65.921875 
Q 24.65625 65.921875 20.015625 65.03125 
Q 15.375 64.15625 9.8125 62.3125 
L 9.8125 71.09375 
Q 15.4375 72.65625 20.34375 73.4375 
Q 25.25 74.21875 29.59375 74.21875 
Q 40.828125 74.21875 47.359375 69.109375 
Q 53.90625 64.015625 53.90625 55.328125 
Q 53.90625 49.265625 50.4375 45.09375 
Q 46.96875 40.921875 40.578125 39.3125 
z
" id="DejaVuSans-33"/>
     </defs>
     <g transform="translate(200.599219 217.060312)scale(0.1 -0.1)">
      <use xlink:href="#DejaVuSans-79"/>
      <use x="59.179688" xlink:href="#DejaVuSans-3d"/>
      <use x="142.96875" xlink:href="#DejaVuSans-78"/>
      <use x="202.148438" xlink:href="#DejaVuSans-5e"/>
      <use x="285.9375" xlink:href="#DejaVuSans-33"/>
     </g>
    </g>
   </g>
  </g>
 </g>
 <defs>
  <clipPath id="p34be537a2d">
   <rect height="217.44" width="334.8" x="38.482813" y="10.7"/>
  </clipPath>
 </defs>
</svg>
