<?xml version="1.0" encoding="utf-8" standalone="no"?>
<!DOCTYPE svg PUBLIC "-//W3C//DTD SVG 1.1//EN"
  "http://www.w3.org/Graphics/SVG/1.1/DTD/svg11.dtd">
<!-- Created with matplotlib (http://matplotlib.org/) -->
<svg height="252pt" version="1.1" viewBox="0 0 375 252" width="375pt" xmlns="http://www.w3.org/2000/svg" xmlns:xlink="http://www.w3.org/1999/xlink">
 <defs>
  <style type="text/css">
*{stroke-linecap:butt;stroke-linejoin:round;}
  </style>
 </defs>
 <g id="figure_1">
  <g id="patch_1">
   <path d="M 0 252.018125 
L 375.603125 252.018125 
L 375.603125 0 
L 0 0 
z
" style="fill:none;"/>
  </g>
  <g id="axes_1">
   <g id="patch_2">
    <path d="M 30.103125 228.14 
L 364.903125 228.14 
L 364.903125 10.7 
L 30.103125 10.7 
z
" style="fill:#ffffff;"/>
   </g>
   <g id="matplotlib.axis_1">
    <g id="xtick_1">
     <g id="line2d_1">
      <path clip-path="url(#p547a4da796)" d="M 75.788137 228.14 
L 75.788137 10.7 
" style="fill:none;stroke:#b0b0b0;stroke-linecap:square;stroke-width:0.8;"/>
     </g>
     <g id="line2d_2">
      <defs>
       <path d="M 0 0 
L 0 3.5 
" id="ma11f8eb5e1" style="stroke:#000000;stroke-width:0.8;"/>
      </defs>
      <g>
       <use style="stroke:#000000;stroke-width:0.8;" x="75.788137" xlink:href="#ma11f8eb5e1" y="228.14"/>
      </g>
     </g>
     <g id="text_1">
      <!-- −4 -->
      <defs>
       <path d="M 10.59375 35.5 
L 73.1875 35.5 
L 73.1875 27.203125 
L 10.59375 27.203125 
z
" id="DejaVuSans-2212"/>
       <path d="M 37.796875 64.3125 
L 12.890625 25.390625 
L 37.796875 25.390625 
z
M 35.203125 72.90625 
L 47.609375 72.90625 
L 47.609375 25.390625 
L 58.015625 25.390625 
L 58.015625 17.1875 
L 47.609375 17.1875 
L 47.609375 0 
L 37.796875 0 
L 37.796875 17.1875 
L 4.890625 17.1875 
L 4.890625 26.703125 
z
" id="DejaVuSans-34"/>
      </defs>
      <g transform="translate(68.417044 242.738437)scale(0.1 -0.1)">
       <use xlink:href="#DejaVuSans-2212"/>
       <use x="83.789062" xlink:href="#DejaVuSans-34"/>
      </g>
     </g>
    </g>
    <g id="xtick_2">
     <g id="line2d_3">
      <path clip-path="url(#p547a4da796)" d="M 136.721798 228.14 
L 136.721798 10.7 
" style="fill:none;stroke:#b0b0b0;stroke-linecap:square;stroke-width:0.8;"/>
     </g>
     <g id="line2d_4">
      <g>
       <use style="stroke:#000000;stroke-width:0.8;" x="136.721798" xlink:href="#ma11f8eb5e1" y="228.14"/>
      </g>
     </g>
     <g id="text_2">
      <!-- −2 -->
      <defs>
       <path d="M 19.1875 8.296875 
L 53.609375 8.296875 
L 53.609375 0 
L 7.328125 0 
L 7.328125 8.296875 
Q 12.9375 14.109375 22.625 23.890625 
Q 32.328125 33.6875 34.8125 36.53125 
Q 39.546875 41.84375 41.421875 45.53125 
Q 43.3125 49.21875 43.3125 52.78125 
Q 43.3125 58.59375 39.234375 62.25 
Q 35.15625 65.921875 28.609375 65.921875 
Q 23.96875 65.921875 18.8125 64.3125 
Q 13.671875 62.703125 7.8125 59.421875 
L 7.8125 69.390625 
Q 13.765625 71.78125 18.9375 73 
Q 24.125 74.21875 28.421875 74.21875 
Q 39.75 74.21875 46.484375 68.546875 
Q 53.21875 62.890625 53.21875 53.421875 
Q 53.21875 48.921875 51.53125 44.890625 
Q 49.859375 40.875 45.40625 35.40625 
Q 44.1875 33.984375 37.640625 27.21875 
Q 31.109375 20.453125 19.1875 8.296875 
z
" id="DejaVuSans-32"/>
      </defs>
      <g transform="translate(129.350704 242.738437)scale(0.1 -0.1)">
       <use xlink:href="#DejaVuSans-2212"/>
       <use x="83.789062" xlink:href="#DejaVuSans-32"/>
      </g>
     </g>
    </g>
    <g id="xtick_3">
     <g id="line2d_5">
      <path clip-path="url(#p547a4da796)" d="M 197.655459 228.14 
L 197.655459 10.7 
" style="fill:none;stroke:#b0b0b0;stroke-linecap:square;stroke-width:0.8;"/>
     </g>
     <g id="line2d_6">
      <g>
       <use style="stroke:#000000;stroke-width:0.8;" x="197.655459" xlink:href="#ma11f8eb5e1" y="228.14"/>
      </g>
     </g>
     <g id="text_3">
      <!-- 0 -->
      <defs>
       <path d="M 31.78125 66.40625 
Q 24.171875 66.40625 20.328125 58.90625 
Q 16.5 51.421875 16.5 36.375 
Q 16.5 21.390625 20.328125 13.890625 
Q 24.171875 6.390625 31.78125 6.390625 
Q 39.453125 6.390625 43.28125 13.890625 
Q 47.125 21.390625 47.125 36.375 
Q 47.125 51.421875 43.28125 58.90625 
Q 39.453125 66.40625 31.78125 66.40625 
z
M 31.78125 74.21875 
Q 44.046875 74.21875 50.515625 64.515625 
Q 56.984375 54.828125 56.984375 36.375 
Q 56.984375 17.96875 50.515625 8.265625 
Q 44.046875 -1.421875 31.78125 -1.421875 
Q 19.53125 -1.421875 13.0625 8.265625 
Q 6.59375 17.96875 6.59375 36.375 
Q 6.59375 54.828125 13.0625 64.515625 
Q 19.53125 74.21875 31.78125 74.21875 
z
" id="DejaVuSans-30"/>
      </defs>
      <g transform="translate(194.474209 242.738437)scale(0.1 -0.1)">
       <use xlink:href="#DejaVuSans-30"/>
      </g>
     </g>
    </g>
    <g id="xtick_4">
     <g id="line2d_7">
      <path clip-path="url(#p547a4da796)" d="M 258.58912 228.14 
L 258.58912 10.7 
" style="fill:none;stroke:#b0b0b0;stroke-linecap:square;stroke-width:0.8;"/>
     </g>
     <g id="line2d_8">
      <g>
       <use style="stroke:#000000;stroke-width:0.8;" x="258.58912" xlink:href="#ma11f8eb5e1" y="228.14"/>
      </g>
     </g>
     <g id="text_4">
      <!-- 2 -->
      <g transform="translate(255.40787 242.738437)scale(0.1 -0.1)">
       <use xlink:href="#DejaVuSans-32"/>
      </g>
     </g>
    </g>
    <g id="xtick_5">
     <g id="line2d_9">
      <path clip-path="url(#p547a4da796)" d="M 319.522781 228.14 
L 319.522781 10.7 
" style="fill:none;stroke:#b0b0b0;stroke-linecap:square;stroke-width:0.8;"/>
     </g>
     <g id="line2d_10">
      <g>
       <use style="stroke:#000000;stroke-width:0.8;" x="319.522781" xlink:href="#ma11f8eb5e1" y="228.14"/>
      </g>
     </g>
     <g id="text_5">
      <!-- 4 -->
      <g transform="translate(316.341531 242.738437)scale(0.1 -0.1)">
       <use xlink:href="#DejaVuSans-34"/>
      </g>
     </g>
    </g>
   </g>
   <g id="matplotlib.axis_2">
    <g id="ytick_1">
     <g id="line2d_11">
      <path clip-path="url(#p547a4da796)" d="M 30.103125 218.256364 
L 364.903125 218.256364 
" style="fill:none;stroke:#b0b0b0;stroke-linecap:square;stroke-width:0.8;"/>
     </g>
     <g id="line2d_12">
      <defs>
       <path d="M 0 0 
L -3.5 0 
" id="mf09ab88e13" style="stroke:#000000;stroke-width:0.8;"/>
      </defs>
      <g>
       <use style="stroke:#000000;stroke-width:0.8;" x="30.103125" xlink:href="#mf09ab88e13" y="218.256364"/>
      </g>
     </g>
     <g id="text_6">
      <!-- 0.0 -->
      <defs>
       <path d="M 10.6875 12.40625 
L 21 12.40625 
L 21 0 
L 10.6875 0 
z
" id="DejaVuSans-2e"/>
      </defs>
      <g transform="translate(7.2 222.055582)scale(0.1 -0.1)">
       <use xlink:href="#DejaVuSans-30"/>
       <use x="63.623047" xlink:href="#DejaVuSans-2e"/>
       <use x="95.410156" xlink:href="#DejaVuSans-30"/>
      </g>
     </g>
    </g>
    <g id="ytick_2">
     <g id="line2d_13">
      <path clip-path="url(#p547a4da796)" d="M 30.103125 173.938208 
L 364.903125 173.938208 
" style="fill:none;stroke:#b0b0b0;stroke-linecap:square;stroke-width:0.8;"/>
     </g>
     <g id="line2d_14">
      <g>
       <use style="stroke:#000000;stroke-width:0.8;" x="30.103125" xlink:href="#mf09ab88e13" y="173.938208"/>
      </g>
     </g>
     <g id="text_7">
      <!-- 0.2 -->
      <g transform="translate(7.2 177.737426)scale(0.1 -0.1)">
       <use xlink:href="#DejaVuSans-30"/>
       <use x="63.623047" xlink:href="#DejaVuSans-2e"/>
       <use x="95.410156" xlink:href="#DejaVuSans-32"/>
      </g>
     </g>
    </g>
    <g id="ytick_3">
     <g id="line2d_15">
      <path clip-path="url(#p547a4da796)" d="M 30.103125 129.620052 
L 364.903125 129.620052 
" style="fill:none;stroke:#b0b0b0;stroke-linecap:square;stroke-width:0.8;"/>
     </g>
     <g id="line2d_16">
      <g>
       <use style="stroke:#000000;stroke-width:0.8;" x="30.103125" xlink:href="#mf09ab88e13" y="129.620052"/>
      </g>
     </g>
     <g id="text_8">
      <!-- 0.4 -->
      <g transform="translate(7.2 133.41927)scale(0.1 -0.1)">
       <use xlink:href="#DejaVuSans-30"/>
       <use x="63.623047" xlink:href="#DejaVuSans-2e"/>
       <use x="95.410156" xlink:href="#DejaVuSans-34"/>
      </g>
     </g>
    </g>
    <g id="ytick_4">
     <g id="line2d_17">
      <path clip-path="url(#p547a4da796)" d="M 30.103125 85.301896 
L 364.903125 85.301896 
" style="fill:none;stroke:#b0b0b0;stroke-linecap:square;stroke-width:0.8;"/>
     </g>
     <g id="line2d_18">
      <g>
       <use style="stroke:#000000;stroke-width:0.8;" x="30.103125" xlink:href="#mf09ab88e13" y="85.301896"/>
      </g>
     </g>
     <g id="text_9">
      <!-- 0.6 -->
      <defs>
       <path d="M 33.015625 40.375 
Q 26.375 40.375 22.484375 35.828125 
Q 18.609375 31.296875 18.609375 23.390625 
Q 18.609375 15.53125 22.484375 10.953125 
Q 26.375 6.390625 33.015625 6.390625 
Q 39.65625 6.390625 43.53125 10.953125 
Q 47.40625 15.53125 47.40625 23.390625 
Q 47.40625 31.296875 43.53125 35.828125 
Q 39.65625 40.375 33.015625 40.375 
z
M 52.59375 71.296875 
L 52.59375 62.3125 
Q 48.875 64.0625 45.09375 64.984375 
Q 41.3125 65.921875 37.59375 65.921875 
Q 27.828125 65.921875 22.671875 59.328125 
Q 17.53125 52.734375 16.796875 39.40625 
Q 19.671875 43.65625 24.015625 45.921875 
Q 28.375 48.1875 33.59375 48.1875 
Q 44.578125 48.1875 50.953125 41.515625 
Q 57.328125 34.859375 57.328125 23.390625 
Q 57.328125 12.15625 50.6875 5.359375 
Q 44.046875 -1.421875 33.015625 -1.421875 
Q 20.359375 -1.421875 13.671875 8.265625 
Q 6.984375 17.96875 6.984375 36.375 
Q 6.984375 53.65625 15.1875 63.9375 
Q 23.390625 74.21875 37.203125 74.21875 
Q 40.921875 74.21875 44.703125 73.484375 
Q 48.484375 72.75 52.59375 71.296875 
z
" id="DejaVuSans-36"/>
      </defs>
      <g transform="translate(7.2 89.101114)scale(0.1 -0.1)">
       <use xlink:href="#DejaVuSans-30"/>
       <use x="63.623047" xlink:href="#DejaVuSans-2e"/>
       <use x="95.410156" xlink:href="#DejaVuSans-36"/>
      </g>
     </g>
    </g>
    <g id="ytick_5">
     <g id="line2d_19">
      <path clip-path="url(#p547a4da796)" d="M 30.103125 40.98374 
L 364.903125 40.98374 
" style="fill:none;stroke:#b0b0b0;stroke-linecap:square;stroke-width:0.8;"/>
     </g>
     <g id="line2d_20">
      <g>
       <use style="stroke:#000000;stroke-width:0.8;" x="30.103125" xlink:href="#mf09ab88e13" y="40.98374"/>
      </g>
     </g>
     <g id="text_10">
      <!-- 0.8 -->
      <defs>
       <path d="M 31.78125 34.625 
Q 24.75 34.625 20.71875 30.859375 
Q 16.703125 27.09375 16.703125 20.515625 
Q 16.703125 13.921875 20.71875 10.15625 
Q 24.75 6.390625 31.78125 6.390625 
Q 38.8125 6.390625 42.859375 10.171875 
Q 46.921875 13.96875 46.921875 20.515625 
Q 46.921875 27.09375 42.890625 30.859375 
Q 38.875 34.625 31.78125 34.625 
z
M 21.921875 38.8125 
Q 15.578125 40.375 12.03125 44.71875 
Q 8.5 49.078125 8.5 55.328125 
Q 8.5 64.0625 14.71875 69.140625 
Q 20.953125 74.21875 31.78125 74.21875 
Q 42.671875 74.21875 48.875 69.140625 
Q 55.078125 64.0625 55.078125 55.328125 
Q 55.078125 49.078125 51.53125 44.71875 
Q 48 40.375 41.703125 38.8125 
Q 48.828125 37.15625 52.796875 32.3125 
Q 56.78125 27.484375 56.78125 20.515625 
Q 56.78125 9.90625 50.3125 4.234375 
Q 43.84375 -1.421875 31.78125 -1.421875 
Q 19.734375 -1.421875 13.25 4.234375 
Q 6.78125 9.90625 6.78125 20.515625 
Q 6.78125 27.484375 10.78125 32.3125 
Q 14.796875 37.15625 21.921875 38.8125 
z
M 18.3125 54.390625 
Q 18.3125 48.734375 21.84375 45.5625 
Q 25.390625 42.390625 31.78125 42.390625 
Q 38.140625 42.390625 41.71875 45.5625 
Q 45.3125 48.734375 45.3125 54.390625 
Q 45.3125 60.0625 41.71875 63.234375 
Q 38.140625 66.40625 31.78125 66.40625 
Q 25.390625 66.40625 21.84375 63.234375 
Q 18.3125 60.0625 18.3125 54.390625 
z
" id="DejaVuSans-38"/>
      </defs>
      <g transform="translate(7.2 44.782958)scale(0.1 -0.1)">
       <use xlink:href="#DejaVuSans-30"/>
       <use x="63.623047" xlink:href="#DejaVuSans-2e"/>
       <use x="95.410156" xlink:href="#DejaVuSans-38"/>
      </g>
     </g>
    </g>
   </g>
   <g id="line2d_21">
    <path clip-path="url(#p547a4da796)" d="M 45.321307 218.256034 
L 86.451528 218.143249 
L 96.505582 217.899109 
L 103.208285 217.532467 
L 108.692314 217.011913 
L 113.262339 216.349531 
L 117.223027 215.54597 
L 120.574378 214.654527 
L 123.925729 213.527458 
L 126.972412 212.262754 
L 129.714427 210.900897 
L 132.456442 209.302422 
L 135.198457 207.444502 
L 137.940471 205.306389 
L 140.682486 202.870582 
L 143.424501 200.124083 
L 146.166516 197.0597 
L 148.90853 193.677329 
L 151.955213 189.556459 
L 155.306565 184.612058 
L 158.962584 178.790195 
L 163.532609 171.042205 
L 176.02401 149.549863 
L 179.070693 144.862244 
L 181.812707 141.033636 
L 184.250054 138.010613 
L 186.382732 135.703091 
L 188.51541 133.74434 
L 190.34342 132.364096 
L 192.17143 131.275006 
L 193.694771 130.598282 
L 195.218113 130.136867 
L 196.741454 129.894204 
L 198.264796 129.872111 
L 199.788137 130.070752 
L 201.311479 130.488641 
L 202.83482 131.122655 
L 204.358162 131.968081 
L 206.186172 133.252746 
L 208.014182 134.8192 
L 210.14686 136.980929 
L 212.279538 139.473633 
L 214.716884 142.683761 
L 217.458899 146.688667 
L 220.81025 152.028994 
L 225.075607 159.294326 
L 236.653002 179.290194 
L 240.309022 185.078138 
L 243.660373 189.985158 
L 246.707056 194.068674 
L 249.753739 197.768272 
L 252.495754 200.761736 
L 255.237769 203.438347 
L 257.979783 205.806697 
L 260.721798 207.880899 
L 263.463813 209.679281 
L 266.205828 211.223149 
L 269.252511 212.668239 
L 272.299194 213.860589 
L 275.650545 214.919292 
L 279.306565 215.819544 
L 283.267253 216.550888 
L 287.837277 217.149983 
L 293.016639 217.59705 
L 299.414673 217.922127 
L 308.250054 218.134707 
L 323.178801 218.238145 
L 349.684943 218.256017 
L 349.684943 218.256017 
" style="fill:none;stroke:#1f77b4;stroke-linecap:square;stroke-width:1.5;"/>
   </g>
   <g id="line2d_22">
    <path clip-path="url(#p547a4da796)" d="M 45.321307 218.256364 
L 116.61369 218.150662 
L 123.621061 217.915554 
L 128.495754 217.533426 
L 132.151774 217.02765 
L 135.198457 216.386309 
L 137.940471 215.573547 
L 140.377818 214.608771 
L 142.510496 213.533726 
L 144.643174 212.201466 
L 146.471184 210.822339 
L 148.299194 209.194567 
L 150.127204 207.28962 
L 151.955213 205.079436 
L 153.783223 202.537407 
L 155.611233 199.639508 
L 157.439243 196.365543 
L 159.571921 192.050914 
L 161.704599 187.19181 
L 163.837277 181.790835 
L 166.274624 174.981697 
L 169.016639 166.586877 
L 172.063322 156.520353 
L 177.242683 138.45286 
L 181.508039 123.853878 
L 184.250054 115.242106 
L 186.382732 109.232433 
L 188.210742 104.692267 
L 189.734083 101.409128 
L 191.257425 98.630699 
L 192.476098 96.7985 
L 193.694771 95.332225 
L 194.913444 94.245719 
L 195.827449 93.686414 
L 196.741454 93.34962 
L 197.655459 93.237154 
L 198.569464 93.34962 
L 199.483469 93.686414 
L 200.397474 94.245719 
L 201.311479 95.02453 
L 202.530152 96.397027 
L 203.748825 98.139227 
L 204.967498 100.234794 
L 206.49084 103.321289 
L 208.014182 106.885315 
L 209.842191 111.72202 
L 211.974869 118.016354 
L 214.716884 126.890913 
L 218.677572 140.594261 
L 224.770938 161.636073 
L 227.817621 171.339958 
L 230.559636 179.314596 
L 232.996982 185.703433 
L 235.129661 190.718349 
L 237.262339 195.187879 
L 239.395017 199.12044 
L 241.527695 202.537407 
L 243.355705 205.079436 
L 245.183715 207.28962 
L 247.011725 209.194567 
L 248.839734 210.822339 
L 250.972412 212.409137 
L 253.105091 213.702084 
L 255.237769 214.743725 
L 257.675115 215.676936 
L 260.41713 216.461611 
L 263.463813 217.079483 
L 267.119833 217.565583 
L 271.385189 217.898618 
L 277.173887 218.118795 
L 286.923272 218.232997 
L 317.390103 218.256339 
L 349.684943 218.256364 
L 349.684943 218.256364 
" style="fill:none;stroke:#ff7f0e;stroke-linecap:square;stroke-width:1.5;"/>
   </g>
   <g id="line2d_23">
    <path clip-path="url(#p547a4da796)" d="M 45.321307 218.256364 
L 114.176344 218.154323 
L 118.4417 217.927919 
L 121.183715 217.595123 
L 123.316393 217.148301 
L 125.144403 216.564869 
L 126.667744 215.88287 
L 128.191086 214.967268 
L 129.714427 213.755079 
L 130.9331 212.522654 
L 132.151774 211.010993 
L 133.370447 209.173743 
L 134.58912 206.961334 
L 135.807793 204.321933 
L 137.026467 201.202739 
L 138.24514 197.551621 
L 139.768481 192.164781 
L 141.291823 185.784864 
L 142.815164 178.346928 
L 144.338506 169.814578 
L 146.166516 158.135149 
L 147.994525 144.970864 
L 150.127204 128.003731 
L 153.173887 101.788805 
L 157.439243 65.229609 
L 159.267253 51.319985 
L 160.790594 41.218652 
L 162.009268 34.361763 
L 163.227941 28.761339 
L 164.141946 25.464193 
L 165.055951 22.990356 
L 165.665287 21.815238 
L 166.274624 21.0279 
L 166.88396 20.633048 
L 167.493297 20.633048 
L 168.102634 21.0279 
L 168.71197 21.815238 
L 169.321307 22.990356 
L 170.235312 25.464193 
L 171.149317 28.761339 
L 172.063322 32.838357 
L 173.281995 39.394683 
L 174.805336 49.17792 
L 176.633346 62.800358 
L 179.070693 83.109405 
L 185.468727 137.88863 
L 187.601405 153.904701 
L 189.429415 166.09392 
L 191.257425 176.728577 
L 192.780766 184.383549 
L 194.304108 190.970663 
L 195.827449 196.549842 
L 197.350791 201.202739 
L 198.874132 205.024699 
L 200.092806 207.552414 
L 201.311479 209.666243 
L 202.530152 211.41756 
L 203.748825 212.855209 
L 205.272167 214.28002 
L 206.795508 215.365334 
L 208.31885 216.18053 
L 210.14686 216.884236 
L 212.279538 217.428898 
L 214.716884 217.805859 
L 218.068236 218.071037 
L 223.247597 218.214669 
L 235.738997 218.255734 
L 349.684943 218.256364 
L 349.684943 218.256364 
" style="fill:none;stroke:#2ca02c;stroke-linecap:square;stroke-width:1.5;"/>
   </g>
   <g id="line2d_24">
    <path clip-path="url(#p547a4da796)" d="M 45.321307 218.159674 
L 68.17143 217.921511 
L 83.404845 217.547481 
L 95.286909 217.037954 
L 105.340963 216.385998 
L 114.176344 215.591117 
L 122.09772 214.659916 
L 129.409759 213.584553 
L 136.41713 212.334009 
L 143.119833 210.917132 
L 149.822535 209.270666 
L 156.525238 207.387152 
L 163.227941 205.266957 
L 170.235312 202.8081 
L 177.547351 200.003963 
L 186.078064 196.482798 
L 198.264796 191.179039 
L 211.974869 185.268684 
L 219.286909 182.356477 
L 225.380275 180.155607 
L 230.864304 178.401911 
L 236.043666 176.979727 
L 240.918358 175.875513 
L 245.488383 175.065278 
L 250.058408 174.486452 
L 254.323764 174.163558 
L 258.58912 174.055398 
L 262.854476 174.163558 
L 267.119833 174.486452 
L 271.689857 175.065278 
L 276.259882 175.875513 
L 281.134575 176.979727 
L 286.009268 178.311638 
L 291.493297 180.052119 
L 297.281995 182.125981 
L 303.984697 184.766791 
L 312.51541 188.378014 
L 338.716884 199.638265 
L 346.333592 202.583252 
L 349.684943 203.798563 
L 349.684943 203.798563 
" style="fill:none;stroke:#d62728;stroke-linecap:square;stroke-width:1.5;"/>
   </g>
   <g id="patch_3">
    <path d="M 30.103125 228.14 
L 30.103125 10.7 
" style="fill:none;stroke:#000000;stroke-linecap:square;stroke-linejoin:miter;stroke-width:0.8;"/>
   </g>
   <g id="patch_4">
    <path d="M 364.903125 228.14 
L 364.903125 10.7 
" style="fill:none;stroke:#000000;stroke-linecap:square;stroke-linejoin:miter;stroke-width:0.8;"/>
   </g>
   <g id="patch_5">
    <path d="M 30.103125 228.14 
L 364.903125 228.14 
" style="fill:none;stroke:#000000;stroke-linecap:square;stroke-linejoin:miter;stroke-width:0.8;"/>
   </g>
   <g id="patch_6">
    <path d="M 30.103125 10.7 
L 364.903125 10.7 
" style="fill:none;stroke:#000000;stroke-linecap:square;stroke-linejoin:miter;stroke-width:0.8;"/>
   </g>
   <g id="legend_1">
    <g id="patch_7">
     <path d="M 251.503125 77.49375 
L 357.903125 77.49375 
Q 359.903125 77.49375 359.903125 75.49375 
L 359.903125 17.7 
Q 359.903125 15.7 357.903125 15.7 
L 251.503125 15.7 
Q 249.503125 15.7 249.503125 17.7 
L 249.503125 75.49375 
Q 249.503125 77.49375 251.503125 77.49375 
z
" style="fill:#ffffff;opacity:0.8;stroke:#cccccc;stroke-linejoin:miter;"/>
    </g>
    <g id="line2d_25">
     <path d="M 253.503125 23.798437 
L 273.503125 23.798437 
" style="fill:none;stroke:#1f77b4;stroke-linecap:square;stroke-width:1.5;"/>
    </g>
    <g id="line2d_26"/>
    <g id="text_11">
     <!-- $\mu$ = 0, $\sigma$ = 1 -->
     <defs>
      <path d="M -1.3125 -20.796875 
L 13.375 54.6875 
L 22.40625 54.6875 
L 15.765625 20.65625 
Q 15.578125 19.625 15.421875 18.359375 
Q 15.28125 17.09375 15.28125 15.828125 
Q 15.28125 11.28125 18.140625 8.828125 
Q 21 6.390625 26.3125 6.390625 
Q 33.546875 6.390625 37.984375 10.484375 
Q 42.4375 14.59375 44 22.796875 
L 50.203125 54.6875 
L 59.1875 54.6875 
L 51.03125 12.640625 
Q 50.828125 11.71875 50.75 11.03125 
Q 50.6875 10.359375 50.6875 9.8125 
Q 50.6875 8.296875 51.296875 7.59375 
Q 51.90625 6.890625 53.21875 6.890625 
Q 53.71875 6.890625 54.5625 7.125 
Q 55.421875 7.375 56.984375 8.015625 
L 55.609375 0.78125 
Q 53.46875 -0.296875 51.515625 -0.859375 
Q 49.5625 -1.421875 47.703125 -1.421875 
Q 44.484375 -1.421875 42.65625 0.625 
Q 40.828125 2.6875 40.828125 6.296875 
Q 38.09375 2.390625 34.296875 0.484375 
Q 30.515625 -1.421875 25.390625 -1.421875 
Q 20.84375 -1.421875 17.453125 0.671875 
Q 14.0625 2.78125 12.984375 6.203125 
L 7.71875 -20.796875 
z
" id="DejaVuSans-Oblique-3bc"/>
      <path id="DejaVuSans-20"/>
      <path d="M 10.59375 45.40625 
L 73.1875 45.40625 
L 73.1875 37.203125 
L 10.59375 37.203125 
z
M 10.59375 25.484375 
L 73.1875 25.484375 
L 73.1875 17.1875 
L 10.59375 17.1875 
z
" id="DejaVuSans-3d"/>
      <path d="M 11.71875 12.40625 
L 22.015625 12.40625 
L 22.015625 4 
L 14.015625 -11.625 
L 7.71875 -11.625 
L 11.71875 4 
z
" id="DejaVuSans-2c"/>
      <path d="M 34.671875 47.5625 
Q 27.25 47.5625 22.21875 42.1875 
Q 16.890625 36.578125 15.140625 27.296875 
Q 13.1875 17.484375 16.3125 11.8125 
Q 19.390625 6.203125 26.65625 6.203125 
Q 33.84375 6.203125 39.109375 11.859375 
Q 44.4375 17.53125 46.34375 27.296875 
Q 48.046875 36.234375 45.015625 42.1875 
Q 42.1875 47.5625 34.671875 47.5625 
z
M 36.078125 54.734375 
L 65.921875 54.6875 
L 64.15625 45.703125 
L 54.109375 45.703125 
Q 57.90625 38.09375 55.859375 27.296875 
Q 53.21875 13.875 45.0625 6.25 
Q 36.859375 -1.421875 25.140625 -1.421875 
Q 13.375 -1.421875 8.203125 6.25 
Q 3.03125 13.875 5.671875 27.296875 
Q 8.25 40.765625 16.40625 48.390625 
Q 23.1875 54.734375 36.078125 54.734375 
z
" id="DejaVuSans-Oblique-3c3"/>
      <path d="M 12.40625 8.296875 
L 28.515625 8.296875 
L 28.515625 63.921875 
L 10.984375 60.40625 
L 10.984375 69.390625 
L 28.421875 72.90625 
L 38.28125 72.90625 
L 38.28125 8.296875 
L 54.390625 8.296875 
L 54.390625 0 
L 12.40625 0 
z
" id="DejaVuSans-31"/>
     </defs>
     <g transform="translate(281.503125 27.298437)scale(0.1 -0.1)">
      <use transform="translate(0 0.78125)" xlink:href="#DejaVuSans-Oblique-3bc"/>
      <use transform="translate(63.623047 0.78125)" xlink:href="#DejaVuSans-20"/>
      <use transform="translate(95.410156 0.78125)" xlink:href="#DejaVuSans-3d"/>
      <use transform="translate(179.199219 0.78125)" xlink:href="#DejaVuSans-20"/>
      <use transform="translate(210.986328 0.78125)" xlink:href="#DejaVuSans-30"/>
      <use transform="translate(274.609375 0.78125)" xlink:href="#DejaVuSans-2c"/>
      <use transform="translate(306.396484 0.78125)" xlink:href="#DejaVuSans-20"/>
      <use transform="translate(338.183594 0.78125)" xlink:href="#DejaVuSans-Oblique-3c3"/>
      <use transform="translate(401.5625 0.78125)" xlink:href="#DejaVuSans-20"/>
      <use transform="translate(433.349609 0.78125)" xlink:href="#DejaVuSans-3d"/>
      <use transform="translate(517.138672 0.78125)" xlink:href="#DejaVuSans-20"/>
      <use transform="translate(548.925781 0.78125)" xlink:href="#DejaVuSans-31"/>
     </g>
    </g>
    <g id="line2d_27">
     <path d="M 253.503125 38.496875 
L 273.503125 38.496875 
" style="fill:none;stroke:#ff7f0e;stroke-linecap:square;stroke-width:1.5;"/>
    </g>
    <g id="line2d_28"/>
    <g id="text_12">
     <!-- $\mu$ = 0, $\sigma$ = 0.5 -->
     <defs>
      <path d="M 10.796875 72.90625 
L 49.515625 72.90625 
L 49.515625 64.59375 
L 19.828125 64.59375 
L 19.828125 46.734375 
Q 21.96875 47.46875 24.109375 47.828125 
Q 26.265625 48.1875 28.421875 48.1875 
Q 40.625 48.1875 47.75 41.5 
Q 54.890625 34.8125 54.890625 23.390625 
Q 54.890625 11.625 47.5625 5.09375 
Q 40.234375 -1.421875 26.90625 -1.421875 
Q 22.3125 -1.421875 17.546875 -0.640625 
Q 12.796875 0.140625 7.71875 1.703125 
L 7.71875 11.625 
Q 12.109375 9.234375 16.796875 8.0625 
Q 21.484375 6.890625 26.703125 6.890625 
Q 35.15625 6.890625 40.078125 11.328125 
Q 45.015625 15.765625 45.015625 23.390625 
Q 45.015625 31 40.078125 35.4375 
Q 35.15625 39.890625 26.703125 39.890625 
Q 22.75 39.890625 18.8125 39.015625 
Q 14.890625 38.140625 10.796875 36.28125 
z
" id="DejaVuSans-35"/>
     </defs>
     <g transform="translate(281.503125 41.996875)scale(0.1 -0.1)">
      <use transform="translate(0 0.78125)" xlink:href="#DejaVuSans-Oblique-3bc"/>
      <use transform="translate(63.623047 0.78125)" xlink:href="#DejaVuSans-20"/>
      <use transform="translate(95.410156 0.78125)" xlink:href="#DejaVuSans-3d"/>
      <use transform="translate(179.199219 0.78125)" xlink:href="#DejaVuSans-20"/>
      <use transform="translate(210.986328 0.78125)" xlink:href="#DejaVuSans-30"/>
      <use transform="translate(274.609375 0.78125)" xlink:href="#DejaVuSans-2c"/>
      <use transform="translate(306.396484 0.78125)" xlink:href="#DejaVuSans-20"/>
      <use transform="translate(338.183594 0.78125)" xlink:href="#DejaVuSans-Oblique-3c3"/>
      <use transform="translate(401.5625 0.78125)" xlink:href="#DejaVuSans-20"/>
      <use transform="translate(433.349609 0.78125)" xlink:href="#DejaVuSans-3d"/>
      <use transform="translate(517.138672 0.78125)" xlink:href="#DejaVuSans-20"/>
      <use transform="translate(548.925781 0.78125)" xlink:href="#DejaVuSans-30"/>
      <use transform="translate(612.548828 0.78125)" xlink:href="#DejaVuSans-2e"/>
      <use transform="translate(644.335938 0.78125)" xlink:href="#DejaVuSans-35"/>
     </g>
    </g>
    <g id="line2d_29">
     <path d="M 253.503125 53.195312 
L 273.503125 53.195312 
" style="fill:none;stroke:#2ca02c;stroke-linecap:square;stroke-width:1.5;"/>
    </g>
    <g id="line2d_30"/>
    <g id="text_13">
     <!-- $\mu$ = -1, $\sigma$ = 0.2 -->
     <defs>
      <path d="M 4.890625 31.390625 
L 31.203125 31.390625 
L 31.203125 23.390625 
L 4.890625 23.390625 
z
" id="DejaVuSans-2d"/>
     </defs>
     <g transform="translate(281.503125 56.695312)scale(0.1 -0.1)">
      <use transform="translate(0 0.78125)" xlink:href="#DejaVuSans-Oblique-3bc"/>
      <use transform="translate(63.623047 0.78125)" xlink:href="#DejaVuSans-20"/>
      <use transform="translate(95.410156 0.78125)" xlink:href="#DejaVuSans-3d"/>
      <use transform="translate(179.199219 0.78125)" xlink:href="#DejaVuSans-20"/>
      <use transform="translate(210.986328 0.78125)" xlink:href="#DejaVuSans-2d"/>
      <use transform="translate(247.070312 0.78125)" xlink:href="#DejaVuSans-31"/>
      <use transform="translate(310.693359 0.78125)" xlink:href="#DejaVuSans-2c"/>
      <use transform="translate(342.480469 0.78125)" xlink:href="#DejaVuSans-20"/>
      <use transform="translate(374.267578 0.78125)" xlink:href="#DejaVuSans-Oblique-3c3"/>
      <use transform="translate(437.646484 0.78125)" xlink:href="#DejaVuSans-20"/>
      <use transform="translate(469.433594 0.78125)" xlink:href="#DejaVuSans-3d"/>
      <use transform="translate(553.222656 0.78125)" xlink:href="#DejaVuSans-20"/>
      <use transform="translate(585.009766 0.78125)" xlink:href="#DejaVuSans-30"/>
      <use transform="translate(648.632812 0.78125)" xlink:href="#DejaVuSans-2e"/>
      <use transform="translate(680.341797 0.78125)" xlink:href="#DejaVuSans-32"/>
     </g>
    </g>
    <g id="line2d_31">
     <path d="M 253.503125 67.89375 
L 273.503125 67.89375 
" style="fill:none;stroke:#d62728;stroke-linecap:square;stroke-width:1.5;"/>
    </g>
    <g id="line2d_32"/>
    <g id="text_14">
     <!-- $\mu$ = 2, $\sigma$ = 4 -->
     <g transform="translate(281.503125 71.39375)scale(0.1 -0.1)">
      <use transform="translate(0 0.78125)" xlink:href="#DejaVuSans-Oblique-3bc"/>
      <use transform="translate(63.623047 0.78125)" xlink:href="#DejaVuSans-20"/>
      <use transform="translate(95.410156 0.78125)" xlink:href="#DejaVuSans-3d"/>
      <use transform="translate(179.199219 0.78125)" xlink:href="#DejaVuSans-20"/>
      <use transform="translate(210.986328 0.78125)" xlink:href="#DejaVuSans-32"/>
      <use transform="translate(274.609375 0.78125)" xlink:href="#DejaVuSans-2c"/>
      <use transform="translate(306.396484 0.78125)" xlink:href="#DejaVuSans-20"/>
      <use transform="translate(338.183594 0.78125)" xlink:href="#DejaVuSans-Oblique-3c3"/>
      <use transform="translate(401.5625 0.78125)" xlink:href="#DejaVuSans-20"/>
      <use transform="translate(433.349609 0.78125)" xlink:href="#DejaVuSans-3d"/>
      <use transform="translate(517.138672 0.78125)" xlink:href="#DejaVuSans-20"/>
      <use transform="translate(548.925781 0.78125)" xlink:href="#DejaVuSans-34"/>
     </g>
    </g>
   </g>
  </g>
 </g>
 <defs>
  <clipPath id="p547a4da796">
   <rect height="217.44" width="334.8" x="30.103125" y="10.7"/>
  </clipPath>
 </defs>
</svg>
