<svg xmlns="http://www.w3.org/2000/svg" xmlns:xlink="http://www.w3.org/1999/xlink" id="processonSvg1000" viewBox="208.0 444.0 749.0 414.0" width="749.0" height="414.0"><defs id="ProcessOnDefs1001"><marker id="ProcessOnMarker1047" markerUnits="userSpaceOnUse" orient="auto" markerWidth="16.23606797749979" markerHeight="10.550836550532098" viewBox="-1.0 -1.3763819204711736 16.23606797749979 10.550836550532098" refX="-1.0" refY="3.8990363547948754"><path id="ProcessOnPath1048" d="M12.0 3.8990363547948754L0.0 7.798072709589751V0.0Z" stroke="#323232" stroke-width="2.0" fill="#323232" transform="matrix(1.0,0.0,0.0,1.0,0.0,0.0)"/></marker><marker id="ProcessOnMarker1051" markerUnits="userSpaceOnUse" orient="auto" markerWidth="16.23606797749979" markerHeight="10.550836550532098" viewBox="-1.0 -1.3763819204711736 16.23606797749979 10.550836550532098" refX="-1.0" refY="3.8990363547948754"><path id="ProcessOnPath1052" d="M12.0 3.8990363547948754L0.0 7.798072709589751V0.0Z" stroke="#323232" stroke-width="2.0" fill="#323232" transform="matrix(1.0,0.0,0.0,1.0,0.0,0.0)"/></marker><marker id="ProcessOnMarker1055" markerUnits="userSpaceOnUse" orient="auto" markerWidth="16.23606797749979" markerHeight="10.550836550532098" viewBox="-1.0 -1.3763819204711736 16.23606797749979 10.550836550532098" refX="-1.0" refY="3.8990363547948754"><path id="ProcessOnPath1056" d="M12.0 3.8990363547948754L0.0 7.798072709589751V0.0Z" stroke="#323232" stroke-width="2.0" fill="#323232" transform="matrix(1.0,0.0,0.0,1.0,0.0,0.0)"/></marker><marker id="ProcessOnMarker1059" markerUnits="userSpaceOnUse" orient="auto" markerWidth="16.23606797749979" markerHeight="10.550836550532098" viewBox="-1.0 -1.3763819204711736 16.23606797749979 10.550836550532098" refX="-1.0" refY="3.8990363547948754"><path id="ProcessOnPath1060" d="M12.0 3.8990363547948754L0.0 7.798072709589751V0.0Z" stroke="#323232" stroke-width="2.0" fill="#323232" transform="matrix(1.0,0.0,0.0,1.0,0.0,0.0)"/></marker><marker id="ProcessOnMarker1063" markerUnits="userSpaceOnUse" orient="auto" markerWidth="16.23606797749979" markerHeight="10.550836550532098" viewBox="-1.0 -1.3763819204711736 16.23606797749979 10.550836550532098" refX="-1.0" refY="3.8990363547948754"><path id="ProcessOnPath1064" d="M12.0 3.8990363547948754L0.0 7.798072709589751V0.0Z" stroke="#323232" stroke-width="2.0" fill="#323232" transform="matrix(1.0,0.0,0.0,1.0,0.0,0.0)"/></marker><marker id="ProcessOnMarker1067" markerUnits="userSpaceOnUse" orient="auto" markerWidth="16.23606797749979" markerHeight="10.550836550532098" viewBox="-1.0 -1.3763819204711736 16.23606797749979 10.550836550532098" refX="-1.0" refY="3.8990363547948754"><path id="ProcessOnPath1068" d="M12.0 3.8990363547948754L0.0 7.798072709589751V0.0Z" stroke="#323232" stroke-width="2.0" fill="#323232" transform="matrix(1.0,0.0,0.0,1.0,0.0,0.0)"/></marker><marker id="ProcessOnMarker1071" markerUnits="userSpaceOnUse" orient="auto" markerWidth="16.23606797749979" markerHeight="10.550836550532098" viewBox="-1.0 -1.3763819204711736 16.23606797749979 10.550836550532098" refX="-1.0" refY="3.8990363547948754"><path id="ProcessOnPath1072" d="M12.0 3.8990363547948754L0.0 7.798072709589751V0.0Z" stroke="#323232" stroke-width="2.0" fill="#323232" transform="matrix(1.0,0.0,0.0,1.0,0.0,0.0)"/></marker><marker id="ProcessOnMarker1075" markerUnits="userSpaceOnUse" orient="auto" markerWidth="16.23606797749979" markerHeight="10.550836550532098" viewBox="-1.0 -1.3763819204711736 16.23606797749979 10.550836550532098" refX="-1.0" refY="3.8990363547948754"><path id="ProcessOnPath1076" d="M12.0 3.8990363547948754L0.0 7.798072709589751V0.0Z" stroke="#323232" stroke-width="2.0" fill="#323232" transform="matrix(1.0,0.0,0.0,1.0,0.0,0.0)"/></marker><marker id="ProcessOnMarker1079" markerUnits="userSpaceOnUse" orient="auto" markerWidth="16.23606797749979" markerHeight="10.550836550532098" viewBox="-1.0 -1.3763819204711736 16.23606797749979 10.550836550532098" refX="-1.0" refY="3.8990363547948754"><path id="ProcessOnPath1080" d="M12.0 3.8990363547948754L0.0 7.798072709589751V0.0Z" stroke="#323232" stroke-width="2.0" fill="#323232" transform="matrix(1.0,0.0,0.0,1.0,0.0,0.0)"/></marker><marker id="ProcessOnMarker1083" markerUnits="userSpaceOnUse" orient="auto" markerWidth="16.23606797749979" markerHeight="10.550836550532098" viewBox="-1.0 -1.3763819204711736 16.23606797749979 10.550836550532098" refX="-1.0" refY="3.8990363547948754"><path id="ProcessOnPath1084" d="M12.0 3.8990363547948754L0.0 7.798072709589751V0.0Z" stroke="#323232" stroke-width="2.0" fill="#323232" transform="matrix(1.0,0.0,0.0,1.0,0.0,0.0)"/></marker><marker id="ProcessOnMarker1091" markerUnits="userSpaceOnUse" orient="auto" markerWidth="16.23606797749979" markerHeight="10.550836550532098" viewBox="-1.0 -1.3763819204711736 16.23606797749979 10.550836550532098" refX="-1.0" refY="3.8990363547948754"><path id="ProcessOnPath1092" d="M12.0 3.8990363547948754L0.0 7.798072709589751V0.0Z" stroke="#323232" stroke-width="2.0" fill="#323232" transform="matrix(1.0,0.0,0.0,1.0,0.0,0.0)"/></marker><marker id="ProcessOnMarker1099" markerUnits="userSpaceOnUse" orient="auto" markerWidth="16.23606797749979" markerHeight="10.550836550532098" viewBox="-1.0 -1.3763819204711736 16.23606797749979 10.550836550532098" refX="-1.0" refY="3.8990363547948754"><path id="ProcessOnPath1100" d="M12.0 3.8990363547948754L0.0 7.798072709589751V0.0Z" stroke="#323232" stroke-width="2.0" fill="#323232" transform="matrix(1.0,0.0,0.0,1.0,0.0,0.0)"/></marker><marker id="ProcessOnMarker1107" markerUnits="userSpaceOnUse" orient="auto" markerWidth="16.23606797749979" markerHeight="10.550836550532098" viewBox="-1.0 -1.3763819204711736 16.23606797749979 10.550836550532098" refX="-1.0" refY="3.8990363547948754"><path id="ProcessOnPath1108" d="M12.0 3.8990363547948754L0.0 7.798072709589751V0.0Z" stroke="#323232" stroke-width="2.0" fill="#323232" transform="matrix(1.0,0.0,0.0,1.0,0.0,0.0)"/></marker><marker id="ProcessOnMarker1115" markerUnits="userSpaceOnUse" orient="auto" markerWidth="16.23606797749979" markerHeight="10.550836550532098" viewBox="-1.0 -1.3763819204711736 16.23606797749979 10.550836550532098" refX="-1.0" refY="3.8990363547948754"><path id="ProcessOnPath1116" d="M12.0 3.8990363547948754L0.0 7.798072709589751V0.0Z" stroke="#323232" stroke-width="2.0" fill="#323232" transform="matrix(1.0,0.0,0.0,1.0,0.0,0.0)"/></marker><marker id="ProcessOnMarker1119" markerUnits="userSpaceOnUse" orient="auto" markerWidth="16.23606797749979" markerHeight="10.550836550532098" viewBox="-1.0 -1.3763819204711736 16.23606797749979 10.550836550532098" refX="-1.0" refY="3.8990363547948754"><path id="ProcessOnPath1120" d="M12.0 3.8990363547948754L0.0 7.798072709589751V0.0Z" stroke="#323232" stroke-width="2.0" fill="#323232" transform="matrix(1.0,0.0,0.0,1.0,0.0,0.0)"/></marker><marker id="ProcessOnMarker1123" markerUnits="userSpaceOnUse" orient="auto" markerWidth="16.23606797749979" markerHeight="10.550836550532098" viewBox="-1.0 -1.3763819204711736 16.23606797749979 10.550836550532098" refX="-1.0" refY="3.8990363547948754"><path id="ProcessOnPath1124" d="M12.0 3.8990363547948754L0.0 7.798072709589751V0.0Z" stroke="#323232" stroke-width="2.0" fill="#323232" transform="matrix(1.0,0.0,0.0,1.0,0.0,0.0)"/></marker><marker id="ProcessOnMarker1127" markerUnits="userSpaceOnUse" orient="auto" markerWidth="16.23606797749979" markerHeight="10.550836550532098" viewBox="-1.0 -1.3763819204711736 16.23606797749979 10.550836550532098" refX="-1.0" refY="3.8990363547948754"><path id="ProcessOnPath1128" d="M12.0 3.8990363547948754L0.0 7.798072709589751V0.0Z" stroke="#323232" stroke-width="2.0" fill="#323232" transform="matrix(1.0,0.0,0.0,1.0,0.0,0.0)"/></marker><marker id="ProcessOnMarker1131" markerUnits="userSpaceOnUse" orient="auto" markerWidth="16.23606797749979" markerHeight="10.550836550532098" viewBox="-1.0 -1.3763819204711736 16.23606797749979 10.550836550532098" refX="-1.0" refY="3.8990363547948754"><path id="ProcessOnPath1132" d="M12.0 3.8990363547948754L0.0 7.798072709589751V0.0Z" stroke="#323232" stroke-width="2.0" fill="#323232" transform="matrix(1.0,0.0,0.0,1.0,0.0,0.0)"/></marker><marker id="ProcessOnMarker1135" markerUnits="userSpaceOnUse" orient="auto" markerWidth="16.23606797749979" markerHeight="10.550836550532098" viewBox="-1.0 -1.3763819204711736 16.23606797749979 10.550836550532098" refX="-1.0" refY="3.8990363547948754"><path id="ProcessOnPath1136" d="M12.0 3.8990363547948754L0.0 7.798072709589751V0.0Z" stroke="#323232" stroke-width="2.0" fill="#323232" transform="matrix(1.0,0.0,0.0,1.0,0.0,0.0)"/></marker><marker id="ProcessOnMarker1139" markerUnits="userSpaceOnUse" orient="auto" markerWidth="16.23606797749979" markerHeight="10.550836550532098" viewBox="-1.0 -1.3763819204711736 16.23606797749979 10.550836550532098" refX="-1.0" refY="3.8990363547948754"><path id="ProcessOnPath1140" d="M12.0 3.8990363547948754L0.0 7.798072709589751V0.0Z" stroke="#323232" stroke-width="2.0" fill="#323232" transform="matrix(1.0,0.0,0.0,1.0,0.0,0.0)"/></marker><marker id="ProcessOnMarker1143" markerUnits="userSpaceOnUse" orient="auto" markerWidth="16.23606797749979" markerHeight="10.550836550532098" viewBox="-1.0 -1.3763819204711736 16.23606797749979 10.550836550532098" refX="-1.0" refY="3.8990363547948754"><path id="ProcessOnPath1144" d="M12.0 3.8990363547948754L0.0 7.798072709589751V0.0Z" stroke="#323232" stroke-width="2.0" fill="#323232" transform="matrix(1.0,0.0,0.0,1.0,0.0,0.0)"/></marker><marker id="ProcessOnMarker1147" markerUnits="userSpaceOnUse" orient="auto" markerWidth="16.23606797749979" markerHeight="10.550836550532098" viewBox="-1.0 -1.3763819204711736 16.23606797749979 10.550836550532098" refX="-1.0" refY="3.8990363547948754"><path id="ProcessOnPath1148" d="M12.0 3.8990363547948754L0.0 7.798072709589751V0.0Z" stroke="#323232" stroke-width="2.0" fill="#323232" transform="matrix(1.0,0.0,0.0,1.0,0.0,0.0)"/></marker><marker id="ProcessOnMarker1151" markerUnits="userSpaceOnUse" orient="auto" markerWidth="16.23606797749979" markerHeight="10.550836550532098" viewBox="-1.0 -1.3763819204711736 16.23606797749979 10.550836550532098" refX="-1.0" refY="3.8990363547948754"><path id="ProcessOnPath1152" d="M12.0 3.8990363547948754L0.0 7.798072709589751V0.0Z" stroke="#323232" stroke-width="2.0" fill="#323232" transform="matrix(1.0,0.0,0.0,1.0,0.0,0.0)"/></marker><marker id="ProcessOnMarker1155" markerUnits="userSpaceOnUse" orient="auto" markerWidth="16.23606797749979" markerHeight="10.550836550532098" viewBox="-1.0 -1.3763819204711736 16.23606797749979 10.550836550532098" refX="-1.0" refY="3.8990363547948754"><path id="ProcessOnPath1156" d="M12.0 3.8990363547948754L0.0 7.798072709589751V0.0Z" stroke="#323232" stroke-width="2.0" fill="#323232" transform="matrix(1.0,0.0,0.0,1.0,0.0,0.0)"/></marker><marker id="ProcessOnMarker1159" markerUnits="userSpaceOnUse" orient="auto" markerWidth="16.23606797749979" markerHeight="10.550836550532098" viewBox="-1.0 -1.3763819204711736 16.23606797749979 10.550836550532098" refX="-1.0" refY="3.8990363547948754"><path id="ProcessOnPath1160" d="M12.0 3.8990363547948754L0.0 7.798072709589751V0.0Z" stroke="#323232" stroke-width="2.0" fill="#323232" transform="matrix(1.0,0.0,0.0,1.0,0.0,0.0)"/></marker><marker id="ProcessOnMarker1163" markerUnits="userSpaceOnUse" orient="auto" markerWidth="16.23606797749979" markerHeight="10.550836550532098" viewBox="-1.0 -1.3763819204711736 16.23606797749979 10.550836550532098" refX="-1.0" refY="3.8990363547948754"><path id="ProcessOnPath1164" d="M12.0 3.8990363547948754L0.0 7.798072709589751V0.0Z" stroke="#323232" stroke-width="2.0" fill="#323232" transform="matrix(1.0,0.0,0.0,1.0,0.0,0.0)"/></marker><marker id="ProcessOnMarker1167" markerUnits="userSpaceOnUse" orient="auto" markerWidth="16.23606797749979" markerHeight="10.550836550532098" viewBox="-1.0 -1.3763819204711736 16.23606797749979 10.550836550532098" refX="-1.0" refY="3.8990363547948754"><path id="ProcessOnPath1168" d="M12.0 3.8990363547948754L0.0 7.798072709589751V0.0Z" stroke="#323232" stroke-width="2.0" fill="#323232" transform="matrix(1.0,0.0,0.0,1.0,0.0,0.0)"/></marker></defs><g id="ProcessOnG1002"><path id="ProcessOnPath1003" d="M208.0 444.0H957.0V858.0H208.0V444.0Z" fill="none"/><g id="ProcessOnG1004"><g id="ProcessOnG1005" transform="matrix(1.0,0.0,0.0,1.0,312.0,530.0)" opacity="1.0"><path id="ProcessOnPath1006" d="M0.0 0.0L69.0 0.0L69.0 93.0L0.0 93.0Z" stroke="#323232" stroke-width="2.0" stroke-dasharray="none" opacity="1.0" fill="#ffffff"/><g id="ProcessOnG1007" transform="matrix(1.0,0.0,0.0,1.0,10.0,35.25)"><text id="ProcessOnText1008" fill="#000000" font-size="18" x="23.5" y="18.45" font-family="微软雅黑" font-weight="normal" font-style="normal" text-decoration="none" family="微软雅黑" text-anchor="middle" size="18">RNN</text></g></g><g id="ProcessOnG1009" transform="matrix(1.0,0.0,0.0,1.0,780.0,530.0)" opacity="1.0"><path id="ProcessOnPath1010" d="M0.0 0.0L69.0 0.0L69.0 93.0L0.0 93.0Z" stroke="#323232" stroke-width="2.0" stroke-dasharray="none" opacity="1.0" fill="#ffffff"/><g id="ProcessOnG1011" transform="matrix(1.0,0.0,0.0,1.0,10.0,35.25)"><text id="ProcessOnText1012" fill="#000000" font-size="18" x="23.5" y="18.45" font-family="微软雅黑" font-weight="normal" font-style="normal" text-decoration="none" family="微软雅黑" text-anchor="middle" size="18">RNN</text></g></g><g id="ProcessOnG1013" transform="matrix(1.0,0.0,0.0,1.0,663.0,530.0)" opacity="1.0"><path id="ProcessOnPath1014" d="M0.0 0.0L69.0 0.0L69.0 93.0L0.0 93.0Z" stroke="#323232" stroke-width="2.0" stroke-dasharray="none" opacity="1.0" fill="#ffffff"/><g id="ProcessOnG1015" transform="matrix(1.0,0.0,0.0,1.0,10.0,35.25)"><text id="ProcessOnText1016" fill="#000000" font-size="18" x="23.5" y="18.45" font-family="微软雅黑" font-weight="normal" font-style="normal" text-decoration="none" family="微软雅黑" text-anchor="middle" size="18">RNN</text></g></g><g id="ProcessOnG1017" transform="matrix(1.0,0.0,0.0,1.0,546.0,530.0)" opacity="1.0"><path id="ProcessOnPath1018" d="M0.0 0.0L69.0 0.0L69.0 93.0L0.0 93.0Z" stroke="#323232" stroke-width="2.0" stroke-dasharray="none" opacity="1.0" fill="#ffffff"/><g id="ProcessOnG1019" transform="matrix(1.0,0.0,0.0,1.0,10.0,35.25)"><text id="ProcessOnText1020" fill="#000000" font-size="18" x="23.5" y="18.45" font-family="微软雅黑" font-weight="normal" font-style="normal" text-decoration="none" family="微软雅黑" text-anchor="middle" size="18">RNN</text></g></g><g id="ProcessOnG1021" transform="matrix(1.0,0.0,0.0,1.0,429.0,530.0)" opacity="1.0"><path id="ProcessOnPath1022" d="M0.0 0.0L69.0 0.0L69.0 93.0L0.0 93.0Z" stroke="#323232" stroke-width="2.0" stroke-dasharray="none" opacity="1.0" fill="#ffffff"/><g id="ProcessOnG1023" transform="matrix(1.0,0.0,0.0,1.0,10.0,35.25)"><text id="ProcessOnText1024" fill="#000000" font-size="18" x="23.5" y="18.45" font-family="微软雅黑" font-weight="normal" font-style="normal" text-decoration="none" family="微软雅黑" text-anchor="middle" size="18">RNN</text></g></g><g id="ProcessOnG1025" transform="matrix(1.0,0.0,0.0,1.0,312.0,673.5)" opacity="1.0"><path id="ProcessOnPath1026" d="M0.0 0.0L69.0 0.0L69.0 93.0L0.0 93.0Z" stroke="#323232" stroke-width="2.0" stroke-dasharray="none" opacity="1.0" fill="#ffffff"/><g id="ProcessOnG1027" transform="matrix(1.0,0.0,0.0,1.0,10.0,35.25)"><text id="ProcessOnText1028" fill="#000000" font-size="18" x="23.5" y="18.45" font-family="微软雅黑" font-weight="normal" font-style="normal" text-decoration="none" family="微软雅黑" text-anchor="middle" size="18">RNN</text></g></g><g id="ProcessOnG1029" transform="matrix(1.0,0.0,0.0,1.0,780.0,673.5)" opacity="1.0"><path id="ProcessOnPath1030" d="M0.0 0.0L69.0 0.0L69.0 93.0L0.0 93.0Z" stroke="#323232" stroke-width="2.0" stroke-dasharray="none" opacity="1.0" fill="#ffffff"/><g id="ProcessOnG1031" transform="matrix(1.0,0.0,0.0,1.0,10.0,35.25)"><text id="ProcessOnText1032" fill="#000000" font-size="18" x="23.5" y="18.45" font-family="微软雅黑" font-weight="normal" font-style="normal" text-decoration="none" family="微软雅黑" text-anchor="middle" size="18">RNN</text></g></g><g id="ProcessOnG1033" transform="matrix(1.0,0.0,0.0,1.0,663.0,673.5)" opacity="1.0"><path id="ProcessOnPath1034" d="M0.0 0.0L69.0 0.0L69.0 93.0L0.0 93.0Z" stroke="#323232" stroke-width="2.0" stroke-dasharray="none" opacity="1.0" fill="#ffffff"/><g id="ProcessOnG1035" transform="matrix(1.0,0.0,0.0,1.0,10.0,35.25)"><text id="ProcessOnText1036" fill="#000000" font-size="18" x="23.5" y="18.45" font-family="微软雅黑" font-weight="normal" font-style="normal" text-decoration="none" family="微软雅黑" text-anchor="middle" size="18">RNN</text></g></g><g id="ProcessOnG1037" transform="matrix(1.0,0.0,0.0,1.0,546.0,673.5)" opacity="1.0"><path id="ProcessOnPath1038" d="M0.0 0.0L69.0 0.0L69.0 93.0L0.0 93.0Z" stroke="#323232" stroke-width="2.0" stroke-dasharray="none" opacity="1.0" fill="#ffffff"/><g id="ProcessOnG1039" transform="matrix(1.0,0.0,0.0,1.0,10.0,35.25)"><text id="ProcessOnText1040" fill="#000000" font-size="18" x="23.5" y="18.45" font-family="微软雅黑" font-weight="normal" font-style="normal" text-decoration="none" family="微软雅黑" text-anchor="middle" size="18">RNN</text></g></g><g id="ProcessOnG1041" transform="matrix(1.0,0.0,0.0,1.0,429.0,673.5)" opacity="1.0"><path id="ProcessOnPath1042" d="M0.0 0.0L69.0 0.0L69.0 93.0L0.0 93.0Z" stroke="#323232" stroke-width="2.0" stroke-dasharray="none" opacity="1.0" fill="#ffffff"/><g id="ProcessOnG1043" transform="matrix(1.0,0.0,0.0,1.0,10.0,35.25)"><text id="ProcessOnText1044" fill="#000000" font-size="18" x="23.5" y="18.45" font-family="微软雅黑" font-weight="normal" font-style="normal" text-decoration="none" family="微软雅黑" text-anchor="middle" size="18">RNN</text></g></g><g id="ProcessOnG1045"><path id="ProcessOnPath1046" d="M381.0 576.5L405.0 576.5L405.0 576.5L413.7639320225002 576.5" stroke="#323232" stroke-width="2.0" stroke-dasharray="none" fill="none" marker-end="url(#ProcessOnMarker1047)"/></g><g id="ProcessOnG1049"><path id="ProcessOnPath1050" d="M498.0 576.5L522.0 576.5L522.0 576.5L530.7639320225002 576.5" stroke="#323232" stroke-width="2.0" stroke-dasharray="none" fill="none" marker-end="url(#ProcessOnMarker1051)"/></g><g id="ProcessOnG1053"><path id="ProcessOnPath1054" d="M615.0 576.5L639.0 576.5L639.0 576.5L647.7639320225002 576.5" stroke="#323232" stroke-width="2.0" stroke-dasharray="none" fill="none" marker-end="url(#ProcessOnMarker1055)"/></g><g id="ProcessOnG1057"><path id="ProcessOnPath1058" d="M732.0 576.5L756.0 576.5L756.0 576.5L764.7639320225002 576.5" stroke="#323232" stroke-width="2.0" stroke-dasharray="none" fill="none" marker-end="url(#ProcessOnMarker1059)"/></g><g id="ProcessOnG1061"><path id="ProcessOnPath1062" d="M346.5 673.5L346.5 648.25L346.5 648.25L346.5 638.2360679774998" stroke="#323232" stroke-width="2.0" stroke-dasharray="none" fill="none" marker-end="url(#ProcessOnMarker1063)"/></g><g id="ProcessOnG1065"><path id="ProcessOnPath1066" d="M463.5 673.5L463.5 648.25L463.5 648.25L463.5 638.2360679774998" stroke="#323232" stroke-width="2.0" stroke-dasharray="none" fill="none" marker-end="url(#ProcessOnMarker1067)"/></g><g id="ProcessOnG1069"><path id="ProcessOnPath1070" d="M580.5 673.5L580.5 648.25L580.5 648.25L580.5 638.2360679774998" stroke="#323232" stroke-width="2.0" stroke-dasharray="none" fill="none" marker-end="url(#ProcessOnMarker1071)"/></g><g id="ProcessOnG1073"><path id="ProcessOnPath1074" d="M697.5 673.5L697.5 648.25L697.5 648.25L697.5 638.2360679774998" stroke="#323232" stroke-width="2.0" stroke-dasharray="none" fill="none" marker-end="url(#ProcessOnMarker1075)"/></g><g id="ProcessOnG1077"><path id="ProcessOnPath1078" d="M814.5 673.5L814.5 648.25L814.5 648.25L814.5 638.2360679774998" stroke="#323232" stroke-width="2.0" stroke-dasharray="none" fill="none" marker-end="url(#ProcessOnMarker1079)"/></g><g id="ProcessOnG1081"><path id="ProcessOnPath1082" d="M229.0 576.5L270.5 576.5L270.5 576.5L296.7639320225002 576.5" stroke="#323232" stroke-width="2.0" stroke-dasharray="none" fill="none" marker-end="url(#ProcessOnMarker1083)"/><g id="ProcessOnG1085" transform="matrix(1.0,0.0,0.0,1.0,262.88196601125014,556.5)"><path id="ProcessOnPath1086" d="M0 0H42.0V40.0H0Z" fill="#fff" transform="matrix(1.0,0.0,0.0,1.0,-21.0,0.0)"/><text id="ProcessOnText1087" fill="#000000" font-size="16" x="0.0" y="16.4" font-family="微软雅黑" font-weight="normal" font-style="normal" text-decoration="none" family="微软雅黑" text-anchor="middle" size="16">Initial</text><text id="ProcessOnText1088" fill="#000000" font-size="16" x="0.0" y="36.4" font-family="微软雅黑" font-weight="normal" font-style="normal" text-decoration="none" family="微软雅黑" text-anchor="middle" size="16">State</text></g></g><g id="ProcessOnG1089"><path id="ProcessOnPath1090" d="M228.0 716.0L270.0 716.0L270.0 720.0L296.7639320225002 720.0" stroke="#323232" stroke-width="2.0" stroke-dasharray="none" fill="none" marker-end="url(#ProcessOnMarker1091)"/><g id="ProcessOnG1093" transform="matrix(1.0,0.0,0.0,1.0,264.38196601125014,696.0)"><path id="ProcessOnPath1094" d="M0 0H42.0V40.0H0Z" fill="#fff" transform="matrix(1.0,0.0,0.0,1.0,-21.0,0.0)"/><text id="ProcessOnText1095" fill="#000000" font-size="16" x="0.0" y="16.4" font-family="微软雅黑" font-weight="normal" font-style="normal" text-decoration="none" family="微软雅黑" text-anchor="middle" size="16">Initial</text><text id="ProcessOnText1096" fill="#000000" font-size="16" x="0.0" y="36.4" font-family="微软雅黑" font-weight="normal" font-style="normal" text-decoration="none" family="微软雅黑" text-anchor="middle" size="16">State</text></g></g><g id="ProcessOnG1097"><path id="ProcessOnPath1098" d="M849.0 578.0L893.0 578.0L893.0 578.0L921.7639320225002 578.0" stroke="#323232" stroke-width="2.0" stroke-dasharray="none" fill="none" marker-end="url(#ProcessOnMarker1099)"/><g id="ProcessOnG1101" transform="matrix(1.0,0.0,0.0,1.0,885.3819660112501,558.0)"><path id="ProcessOnPath1102" d="M0 0H39.0V40.0H0Z" fill="#fff" transform="matrix(1.0,0.0,0.0,1.0,-19.5,0.0)"/><text id="ProcessOnText1103" fill="#000000" font-size="16" x="0.0" y="16.4" font-family="微软雅黑" font-weight="normal" font-style="normal" text-decoration="none" family="微软雅黑" text-anchor="middle" size="16">Final</text><text id="ProcessOnText1104" fill="#000000" font-size="16" x="0.0" y="36.4" font-family="微软雅黑" font-weight="normal" font-style="normal" text-decoration="none" family="微软雅黑" text-anchor="middle" size="16">State</text></g></g><g id="ProcessOnG1105"><path id="ProcessOnPath1106" d="M849.0 720.0L892.0 720.0L892.0 716.0L919.7639320225002 716.0" stroke="#323232" stroke-width="2.0" stroke-dasharray="none" fill="none" marker-end="url(#ProcessOnMarker1107)"/><g id="ProcessOnG1109" transform="matrix(1.0,0.0,0.0,1.0,886.3819660112501,700.0)"><path id="ProcessOnPath1110" d="M0 0H39.0V40.0H0Z" fill="#fff" transform="matrix(1.0,0.0,0.0,1.0,-19.5,0.0)"/><text id="ProcessOnText1111" fill="#000000" font-size="16" x="0.0" y="16.4" font-family="微软雅黑" font-weight="normal" font-style="normal" text-decoration="none" family="微软雅黑" text-anchor="middle" size="16">Final</text><text id="ProcessOnText1112" fill="#000000" font-size="16" x="0.0" y="36.4" font-family="微软雅黑" font-weight="normal" font-style="normal" text-decoration="none" family="微软雅黑" text-anchor="middle" size="16">State</text></g></g><g id="ProcessOnG1113"><path id="ProcessOnPath1114" d="M381.0 720.0L405.0 720.0L405.0 720.0L413.7639320225002 720.0" stroke="#323232" stroke-width="2.0" stroke-dasharray="none" fill="none" marker-end="url(#ProcessOnMarker1115)"/></g><g id="ProcessOnG1117"><path id="ProcessOnPath1118" d="M498.0 720.0L522.0 720.0L522.0 720.0L530.7639320225002 720.0" stroke="#323232" stroke-width="2.0" stroke-dasharray="none" fill="none" marker-end="url(#ProcessOnMarker1119)"/></g><g id="ProcessOnG1121"><path id="ProcessOnPath1122" d="M615.0 720.0L639.0 720.0L639.0 720.0L647.7639320225002 720.0" stroke="#323232" stroke-width="2.0" stroke-dasharray="none" fill="none" marker-end="url(#ProcessOnMarker1123)"/></g><g id="ProcessOnG1125"><path id="ProcessOnPath1126" d="M732.0 720.0L756.0 720.0L756.0 720.0L764.7639320225002 720.0" stroke="#323232" stroke-width="2.0" stroke-dasharray="none" fill="none" marker-end="url(#ProcessOnMarker1127)"/></g><g id="ProcessOnG1129"><path id="ProcessOnPath1130" d="M346.5 802.0L346.5 784.25L346.5 784.25L346.5 781.7360679774998" stroke="#323232" stroke-width="2.0" stroke-dasharray="none" fill="none" marker-end="url(#ProcessOnMarker1131)"/></g><g id="ProcessOnG1133"><path id="ProcessOnPath1134" d="M463.5 802.0L463.5 784.25L463.5 784.25L463.5 781.7360679774998" stroke="#323232" stroke-width="2.0" stroke-dasharray="none" fill="none" marker-end="url(#ProcessOnMarker1135)"/></g><g id="ProcessOnG1137"><path id="ProcessOnPath1138" d="M580.5 801.0L580.5 783.75L580.5 783.75L580.5 781.7360679774998" stroke="#323232" stroke-width="2.0" stroke-dasharray="none" fill="none" marker-end="url(#ProcessOnMarker1139)"/></g><g id="ProcessOnG1141"><path id="ProcessOnPath1142" d="M697.5 801.0L697.5 783.75L697.5 783.75L697.5 781.7360679774998" stroke="#323232" stroke-width="2.0" stroke-dasharray="none" fill="none" marker-end="url(#ProcessOnMarker1143)"/></g><g id="ProcessOnG1145"><path id="ProcessOnPath1146" d="M814.5 800.0L814.5 783.25L814.5 783.25L814.5 781.7360679774998" stroke="#323232" stroke-width="2.0" stroke-dasharray="none" fill="none" marker-end="url(#ProcessOnMarker1147)"/></g><g id="ProcessOnG1149"><path id="ProcessOnPath1150" d="M345.0 531.0L345.0 515.5L345.0 515.5L345.0 515.2360679774998" stroke="#323232" stroke-width="2.0" stroke-dasharray="none" fill="none" marker-end="url(#ProcessOnMarker1151)"/></g><g id="ProcessOnG1153"><path id="ProcessOnPath1154" d="M463.5 530.0L463.5 515.0L463.5 515.0L463.5 514.0" stroke="#323232" stroke-width="2.0" stroke-dasharray="none" fill="none" marker-end="url(#ProcessOnMarker1155)"/></g><g id="ProcessOnG1157"><path id="ProcessOnPath1158" d="M580.5 530.0L580.5 515.0L580.5 515.0L580.5 514.0" stroke="#323232" stroke-width="2.0" stroke-dasharray="none" fill="none" marker-end="url(#ProcessOnMarker1159)"/></g><g id="ProcessOnG1161"><path id="ProcessOnPath1162" d="M697.5 530.0L697.5 515.5L697.5 515.5L697.5 514.5" stroke="#323232" stroke-width="2.0" stroke-dasharray="none" fill="none" marker-end="url(#ProcessOnMarker1163)"/></g><g id="ProcessOnG1165"><path id="ProcessOnPath1166" d="M814.5 530.0L814.5 515.0L814.5 515.0L814.5 514.0" stroke="#323232" stroke-width="2.0" stroke-dasharray="none" fill="none" marker-end="url(#ProcessOnMarker1167)"/></g><g id="ProcessOnG1169" transform="matrix(1.0,0.0,0.0,1.0,325.5,802.0)" opacity="1.0"><path id="ProcessOnPath1170" d="M0.0 0.0L42.0 0.0L42.0 36.0L0.0 36.0Z" stroke="none" stroke-width="0.0" stroke-dasharray="none" opacity="1.0" fill="none"/><g id="ProcessOnG1171" transform="matrix(1.0,0.0,0.0,1.0,0.0,4.875)"><text id="ProcessOnText1172" fill="#000000" font-size="21" x="20.0" y="21.525" font-family="微软雅黑" font-weight="normal" font-style="normal" text-decoration="none" family="微软雅黑" text-anchor="middle" size="21">床</text></g></g><g id="ProcessOnG1173" transform="matrix(1.0,0.0,0.0,1.0,442.5,802.0)" opacity="1.0"><path id="ProcessOnPath1174" d="M0.0 0.0L42.0 0.0L42.0 36.0L0.0 36.0Z" stroke="none" stroke-width="0.0" stroke-dasharray="none" opacity="1.0" fill="none"/><g id="ProcessOnG1175" transform="matrix(1.0,0.0,0.0,1.0,0.0,4.875)"><text id="ProcessOnText1176" fill="#000000" font-size="21" x="20.0" y="21.525" font-family="微软雅黑" font-weight="normal" font-style="normal" text-decoration="none" family="微软雅黑" text-anchor="middle" size="21">前</text></g></g><g id="ProcessOnG1177" transform="matrix(1.0,0.0,0.0,1.0,559.5,802.0)" opacity="1.0"><path id="ProcessOnPath1178" d="M0.0 0.0L42.0 0.0L42.0 36.0L0.0 36.0Z" stroke="none" stroke-width="0.0" stroke-dasharray="none" opacity="1.0" fill="none"/><g id="ProcessOnG1179" transform="matrix(1.0,0.0,0.0,1.0,0.0,4.875)"><text id="ProcessOnText1180" fill="#000000" font-size="21" x="20.0" y="21.525" font-family="微软雅黑" font-weight="normal" font-style="normal" text-decoration="none" family="微软雅黑" text-anchor="middle" size="21">明</text></g></g><g id="ProcessOnG1181" transform="matrix(1.0,0.0,0.0,1.0,676.5,802.0)" opacity="1.0"><path id="ProcessOnPath1182" d="M0.0 0.0L42.0 0.0L42.0 36.0L0.0 36.0Z" stroke="none" stroke-width="0.0" stroke-dasharray="none" opacity="1.0" fill="none"/><g id="ProcessOnG1183" transform="matrix(1.0,0.0,0.0,1.0,0.0,4.875)"><text id="ProcessOnText1184" fill="#000000" font-size="21" x="20.0" y="21.525" font-family="微软雅黑" font-weight="normal" font-style="normal" text-decoration="none" family="微软雅黑" text-anchor="middle" size="21">月</text></g></g><g id="ProcessOnG1185" transform="matrix(1.0,0.0,0.0,1.0,793.5,802.0)" opacity="1.0"><path id="ProcessOnPath1186" d="M0.0 0.0L42.0 0.0L42.0 36.0L0.0 36.0Z" stroke="none" stroke-width="0.0" stroke-dasharray="none" opacity="1.0" fill="none"/><g id="ProcessOnG1187" transform="matrix(1.0,0.0,0.0,1.0,0.0,4.875)"><text id="ProcessOnText1188" fill="#000000" font-size="21" x="20.0" y="21.525" font-family="微软雅黑" font-weight="normal" font-style="normal" text-decoration="none" family="微软雅黑" text-anchor="middle" size="21">光</text></g></g><g id="ProcessOnG1189" transform="matrix(1.0,0.0,0.0,1.0,442.5,464.0)" opacity="1.0"><path id="ProcessOnPath1190" d="M0.0 0.0L42.0 0.0L42.0 36.0L0.0 36.0Z" stroke="none" stroke-width="0.0" stroke-dasharray="none" opacity="1.0" fill="none"/><g id="ProcessOnG1191" transform="matrix(1.0,0.0,0.0,1.0,0.0,4.875)"><text id="ProcessOnText1192" fill="#000000" font-size="21" x="20.0" y="21.525" font-family="微软雅黑" font-weight="normal" font-style="normal" text-decoration="none" family="微软雅黑" text-anchor="middle" size="21">明</text></g></g><g id="ProcessOnG1193" transform="matrix(1.0,0.0,0.0,1.0,325.5,464.0)" opacity="1.0"><path id="ProcessOnPath1194" d="M0.0 0.0L42.0 0.0L42.0 36.0L0.0 36.0Z" stroke="none" stroke-width="0.0" stroke-dasharray="none" opacity="1.0" fill="none"/><g id="ProcessOnG1195" transform="matrix(1.0,0.0,0.0,1.0,0.0,4.875)"><text id="ProcessOnText1196" fill="#000000" font-size="21" x="20.0" y="21.525" font-family="微软雅黑" font-weight="normal" font-style="normal" text-decoration="none" family="微软雅黑" text-anchor="middle" size="21">前</text></g></g><g id="ProcessOnG1197" transform="matrix(1.0,0.0,0.0,1.0,559.5,464.0)" opacity="1.0"><path id="ProcessOnPath1198" d="M0.0 0.0L42.0 0.0L42.0 36.0L0.0 36.0Z" stroke="none" stroke-width="0.0" stroke-dasharray="none" opacity="1.0" fill="none"/><g id="ProcessOnG1199" transform="matrix(1.0,0.0,0.0,1.0,0.0,4.875)"><text id="ProcessOnText1200" fill="#000000" font-size="21" x="20.0" y="21.525" font-family="微软雅黑" font-weight="normal" font-style="normal" text-decoration="none" family="微软雅黑" text-anchor="middle" size="21">月</text></g></g><g id="ProcessOnG1201" transform="matrix(1.0,0.0,0.0,1.0,676.5,464.0)" opacity="1.0"><path id="ProcessOnPath1202" d="M0.0 0.0L42.0 0.0L42.0 36.0L0.0 36.0Z" stroke="none" stroke-width="0.0" stroke-dasharray="none" opacity="1.0" fill="none"/><g id="ProcessOnG1203" transform="matrix(1.0,0.0,0.0,1.0,0.0,4.875)"><text id="ProcessOnText1204" fill="#000000" font-size="21" x="20.0" y="21.525" font-family="微软雅黑" font-weight="normal" font-style="normal" text-decoration="none" family="微软雅黑" text-anchor="middle" size="21">光</text></g></g><g id="ProcessOnG1205" transform="matrix(1.0,0.0,0.0,1.0,793.5,464.0)" opacity="1.0"><path id="ProcessOnPath1206" d="M0.0 0.0L42.0 0.0L42.0 36.0L0.0 36.0Z" stroke="none" stroke-width="0.0" stroke-dasharray="none" opacity="1.0" fill="none"/><g id="ProcessOnG1207" transform="matrix(1.0,0.0,0.0,1.0,0.0,4.875)"><text id="ProcessOnText1208" fill="#000000" font-size="21" x="20.0" y="21.525" font-family="微软雅黑" font-weight="normal" font-style="normal" text-decoration="none" family="微软雅黑" text-anchor="middle" size="21">EOF</text></g></g></g></g></svg>